<?xml version="1.0" encoding="UTF-8"?>
<svg xmlns="http://www.w3.org/2000/svg" xmlns:xlink="http://www.w3.org/1999/xlink" width="px" height="px" viewBox="0 0 100 107" version="1.1">
<defs>
<radialGradient id="radial0" gradientUnits="userSpaceOnUse" cx="0" cy="0" fx="0" fy="0" r="1" gradientTransform="matrix(38.247684,0,0,38.069788,51.17037,86.265411)">
<stop offset="0" style="stop-color:rgb(0%,0%,0%);stop-opacity:0.690196;"/>
<stop offset="1" style="stop-color:rgb(0%,0%,0%);stop-opacity:0;"/>
</radialGradient>
<linearGradient id="linear0" gradientUnits="userSpaceOnUse" x1="0" y1="0" x2="1" y2="0" gradientTransform="matrix(19.900926,0,0,42.364073,23.840277,-8.118545)">
<stop offset="0" style="stop-color:rgb(60%,60%,60%);stop-opacity:1;"/>
<stop offset="1" style="stop-color:rgb(60%,60%,60%);stop-opacity:0;"/>
</linearGradient>
<radialGradient id="radial1" gradientUnits="userSpaceOnUse" cx="0" cy="0" fx="0" fy="0" r="1" gradientTransform="matrix(23.221759,-0.0400904,0.0402778,23.113751,57.615739,67.910441)">
<stop offset="0" style="stop-color:rgb(100%,100%,100%);stop-opacity:1;"/>
<stop offset="1" style="stop-color:rgb(100%,100%,100%);stop-opacity:0;"/>
</radialGradient>
<radialGradient id="radial2" gradientUnits="userSpaceOnUse" cx="0" cy="0" fx="0" fy="0" r="1" gradientTransform="matrix(-15.441204,0.466339,-0.468519,-15.369384,57.940741,53.088498)">
<stop offset="0" style="stop-color:rgb(100%,100%,100%);stop-opacity:1;"/>
<stop offset="1" style="stop-color:rgb(100%,100%,100%);stop-opacity:0;"/>
</radialGradient>
<radialGradient id="radial3" gradientUnits="userSpaceOnUse" cx="0" cy="0" fx="0" fy="0" r="1" gradientTransform="matrix(-7.980092,-4.707631,4.729629,-7.942976,54.21713,26.013627)">
<stop offset="0" style="stop-color:rgb(100%,100%,100%);stop-opacity:1;"/>
<stop offset="1" style="stop-color:rgb(100%,100%,100%);stop-opacity:0;"/>
</radialGradient>
<linearGradient id="linear1" gradientUnits="userSpaceOnUse" x1="0" y1="0" x2="1" y2="0" gradientTransform="matrix(-28.129629,-1.520672,0.55463,-10.162235,86.065278,40.759534)">
<stop offset="0" style="stop-color:rgb(60%,60%,60%);stop-opacity:1;"/>
<stop offset="1" style="stop-color:rgb(60%,60%,60%);stop-opacity:0;"/>
</linearGradient>
<linearGradient id="linear2" gradientUnits="userSpaceOnUse" x1="0" y1="0" x2="1" y2="0" gradientTransform="matrix(11.149537,-6.229686,4.303703,7.630547,26.532871,44.082895)">
<stop offset="0" style="stop-color:rgb(60%,60%,60%);stop-opacity:1;"/>
<stop offset="1" style="stop-color:rgb(60%,60%,60%);stop-opacity:0;"/>
</linearGradient>
<filter id="alpha" filterUnits="objectBoundingBox" x="0%" y="0%" width="100%" height="100%">
  <feColorMatrix type="matrix" in="SourceGraphic" values="0 0 0 0 1 0 0 0 0 1 0 0 0 0 1 0 0 0 1 0"/>
</filter>
<mask id="mask0">
  <g filter="url(#alpha)">
<rect x="0" y="0" width="100" height="107" style="fill:rgb(0%,0%,0%);fill-opacity:0.501961;stroke:none;"/>
  </g>
</mask>
<radialGradient id="radial4" gradientUnits="userSpaceOnUse" cx="0" cy="0" fx="0" fy="0" r="1" gradientTransform="matrix(8.976389,0,0,8.934638,52.643518,41.580238)">
<stop offset="0" style="stop-color:rgb(89.019608%,70.196078%,41.568627%);stop-opacity:1;"/>
<stop offset="1" style="stop-color:rgb(89.019608%,70.196078%,41.568627%);stop-opacity:0;"/>
</radialGradient>
<clipPath id="clip1">
  <rect x="0" y="0" width="100" height="107"/>
</clipPath>
<g id="surface5" clip-path="url(#clip1)">
<path style=" stroke:none;fill-rule:evenodd;fill:url(#radial4);" d="M 61.621094 41.566406 C 61.621094 44.558594 57.59375 46.957031 52.640625 46.957031 C 47.683594 46.957031 43.65625 44.558594 43.65625 41.609375 C 43.65625 38.617188 47.683594 36.21875 52.640625 36.171875 C 57.59375 36.171875 61.621094 38.570312 61.621094 41.566406 L 52.640625 41.566406 Z M 61.621094 41.566406 "/>
</g>
<linearGradient id="linear3" gradientUnits="userSpaceOnUse" x1="0" y1="0" x2="1" y2="0" gradientTransform="matrix(19.24537,45.939036,-26.769444,11.110581,30.204165,1.700388)">
<stop offset="0" style="stop-color:rgb(79.607843%,97.647059%,100%);stop-opacity:0.658824;"/>
<stop offset="1" style="stop-color:rgb(100%,94.901961%,94.901961%);stop-opacity:0;"/>
</linearGradient>
<linearGradient id="linear4" gradientUnits="userSpaceOnUse" x1="0" y1="0" x2="1" y2="0" gradientTransform="matrix(-1.990741,84.093155,-39.217129,-0.919776,56.39398,-31.937794)">
<stop offset="0" style="stop-color:rgb(79.607843%,97.647059%,100%);stop-opacity:0.658824;"/>
<stop offset="1" style="stop-color:rgb(100%,94.901961%,94.901961%);stop-opacity:0;"/>
</linearGradient>
<radialGradient id="radial5" gradientUnits="userSpaceOnUse" cx="0" cy="0" fx="0" fy="0" r="1" gradientTransform="matrix(1.773148,-0.691675,0.694907,1.764901,22.888426,61.265566)">
<stop offset="0" style="stop-color:rgb(100%,100%,100%);stop-opacity:1;"/>
<stop offset="1" style="stop-color:rgb(100%,100%,100%);stop-opacity:0;"/>
</radialGradient>
<linearGradient id="linear5" gradientUnits="userSpaceOnUse" x1="0" y1="0" x2="1" y2="0" gradientTransform="matrix(20.097222,-6.526447,6.937037,21.163143,7.47963,55.352917)">
<stop offset="0" style="stop-color:rgb(60%,60%,60%);stop-opacity:1;"/>
<stop offset="0.5" style="stop-color:rgb(100%,100%,100%);stop-opacity:0.501961;"/>
<stop offset="1" style="stop-color:rgb(60%,60%,60%);stop-opacity:1;"/>
</linearGradient>
<radialGradient id="radial6" gradientUnits="userSpaceOnUse" cx="0" cy="0" fx="0" fy="0" r="1" gradientTransform="matrix(-27.403,-45.527,45.527,-27.403,55.469002,109.890999)">
<stop offset="0" style="stop-color:rgb(90.196078%,90.196078%,90.196078%);stop-opacity:1;"/>
<stop offset="0.5" style="stop-color:rgb(90.196078%,90.196078%,90.196078%);stop-opacity:1;"/>
<stop offset="0.75" style="stop-color:rgb(90.196078%,90.196078%,90.196078%);stop-opacity:1;"/>
<stop offset="1" style="stop-color:rgb(90.196078%,90.196078%,90.196078%);stop-opacity:0;"/>
</radialGradient>
<radialGradient id="radial7" gradientUnits="userSpaceOnUse" cx="0" cy="0" fx="0" fy="0" r="1" gradientTransform="matrix(1.773148,-0.691675,0.694907,1.764901,13.555092,44.54278)">
<stop offset="0" style="stop-color:rgb(100%,100%,100%);stop-opacity:1;"/>
<stop offset="1" style="stop-color:rgb(100%,100%,100%);stop-opacity:0;"/>
</radialGradient>
<linearGradient id="linear6" gradientUnits="userSpaceOnUse" x1="0" y1="0" x2="1" y2="0" gradientTransform="matrix(1.524074,0,0,5.239406,15.375462,1.111934)">
<stop offset="0" style="stop-color:rgb(90.196078%,90.196078%,90.196078%);stop-opacity:1;"/>
<stop offset="1" style="stop-color:rgb(90.196078%,90.196078%,90.196078%);stop-opacity:0;"/>
</linearGradient>
<linearGradient id="linear7" gradientUnits="userSpaceOnUse" x1="0" y1="0" x2="1" y2="0" gradientTransform="matrix(2.702315,3.098023,-0.180556,0.156214,26.465741,47.704395)">
<stop offset="0" style="stop-color:rgb(90.196078%,90.196078%,90.196078%);stop-opacity:1;"/>
<stop offset="1" style="stop-color:rgb(90.196078%,90.196078%,90.196078%);stop-opacity:0;"/>
</linearGradient>
</defs>
<g id="surface1">
<path style=" stroke:none;fill-rule:evenodd;fill:url(#radial0);" d="M 97.175781 86.261719 C 97.175781 90.78125 92.316406 95.066406 83.703125 98.246094 C 75.09375 101.425781 63.378906 103.175781 51.15625 103.175781 C 38.980469 103.175781 27.269531 101.425781 18.65625 98.246094 C 10 95.066406 5.140625 90.78125 5.140625 86.261719 C 5.140625 81.792969 10 77.460938 18.65625 74.28125 C 27.269531 71.101562 38.980469 69.351562 51.15625 69.351562 C 63.378906 69.351562 75.09375 71.101562 83.703125 74.28125 C 92.316406 77.460938 97.175781 81.792969 97.175781 86.261719 Z M 97.175781 86.261719 "/>
<path style=" stroke:none;fill-rule:evenodd;fill:rgb(60.000002%,60.000002%,60.000002%);fill-opacity:1;" d="M 75.183594 83.773438 C 75.183594 90.363281 66.898438 95.710938 56.621094 95.710938 C 46.34375 95.710938 38.007812 90.410156 38.007812 83.820312 C 38.007812 77.230469 46.296875 71.839844 56.574219 71.839844 C 66.804688 71.839844 75.140625 77.140625 75.183594 83.730469 L 56.621094 83.773438 Z M 75.183594 83.773438 "/>
<path style=" stroke:none;fill-rule:evenodd;fill:rgb(80.000001%,80.000001%,80.000001%);fill-opacity:1;" d="M 56.480469 20.414062 C 37.871094 20.414062 22.777344 28.15625 22.777344 37.695312 C 22.777344 39.078125 23.101562 40.414062 23.703125 41.703125 L 36.574219 82.484375 C 37.964844 89.351562 46.296875 94.605469 56.390625 94.605469 C 59.445312 94.605469 62.359375 94.144531 64.953125 93.269531 C 70.878906 91.285156 75.230469 87.277344 76.203125 82.484375 L 76.25 82.484375 L 89.582031 41.148438 L 89.445312 41.148438 C 89.90625 40.042969 90.140625 38.890625 90.140625 37.695312 C 90.140625 28.15625 75.046875 20.414062 56.480469 20.414062 Z M 56.480469 20.414062 "/>
<path style="fill-rule:evenodd;fill:rgb(80.000001%,80.000001%,80.000001%);fill-opacity:1;stroke-width:0.5;stroke-linecap:butt;stroke-linejoin:miter;stroke:rgb(85.490197%,85.490197%,85.490197%);stroke-opacity:1;stroke-miterlimit:4;" d="M 193.201875 89.501124 L 193.800938 86.898708 L 194.29875 83.796152 " transform="matrix(0.462963,0,0,0.46081,0,0.046081)"/>
<path style=" stroke:none;fill-rule:evenodd;fill:rgb(100%,100%,100%);fill-opacity:1;" d="M 41.757812 50.78125 C 63.519531 56.910156 89.722656 49.492188 88.890625 37.1875 C 88.101562 24.699219 62.175781 17.878906 39.953125 24.101562 C 18.195312 30.230469 18.332031 45.019531 40.507812 50.828125 C 63.101562 56.726562 88.195312 49.214844 88.242188 36.679688 C 88.242188 24.421875 61.898438 17.097656 40.554688 23.546875 C 18.75 30.183594 19.582031 44.515625 41.757812 50.78125 Z M 41.757812 50.78125 "/>
<path style=" stroke:none;fill-rule:evenodd;fill:url(#linear0);" d="M 23.84375 41.886719 C 23.84375 41.886719 26.433594 46.679688 32.453125 50.320312 C 42.59375 54.46875 43.332031 53.914062 43.332031 53.914062 L 47.917969 93.128906 C 47.917969 93.128906 44.257812 91.746094 41.621094 89.949219 C 38.980469 88.105469 37.082031 84.234375 37.082031 84.234375 C 37.082031 84.234375 23.84375 41.886719 23.84375 41.886719 Z M 23.84375 41.886719 "/>
<path style=" stroke:none;fill-rule:evenodd;fill:url(#radial1);" d="M 36.804688 89.121094 L 56.621094 94.003906 L 79.953125 88.84375 L 80.601562 54.328125 C 80.601562 54.328125 64.722656 55.710938 55.695312 55.757812 C 45.972656 55.757812 34.816406 54.054688 34.816406 54.054688 C 34.816406 54.054688 36.804688 89.121094 36.804688 89.121094 Z M 36.804688 89.121094 "/>
<path style=" stroke:none;fill-rule:evenodd;fill:url(#radial2);" d="M 54.859375 60.6875 C 48.054688 60.6875 42.5 56.816406 42.5 51.980469 C 42.5 47.1875 48.242188 41.609375 54.859375 43.269531 L 78.796875 49.214844 C 70.554688 53.222656 65.507812 59.304688 54.859375 60.6875 Z M 54.859375 60.6875 "/>
<path style=" stroke:none;fill-rule:evenodd;fill:url(#radial3);" d="M 65.648438 26.40625 C 65.648438 31.058594 60.230469 34.515625 53.566406 34.101562 C 46.851562 33.683594 41.433594 29.582031 41.390625 24.882812 C 41.390625 20.230469 46.804688 16.773438 53.519531 17.140625 C 60.183594 17.558594 65.648438 21.65625 65.648438 26.359375 L 53.519531 25.621094 Z M 65.648438 26.40625 "/>
<path style=" stroke:none;fill-rule:evenodd;fill:url(#linear1);" d="M 71.851562 31.75 C 57.640625 30.644531 28.84375 34.238281 27.917969 40.875 C 30.507812 46.171875 43.285156 51.839844 57.035156 51.839844 C 70.972656 51.839844 87.175781 44.375 86.019531 39.121094 C 85.925781 40.550781 85.695312 33.269531 71.851562 31.75 Z M 71.851562 31.75 "/>
<path style=" stroke:none;fill-rule:evenodd;fill:rgb(100%,100%,100%);fill-opacity:1;" d="M 65.601562 53.636719 C 65.601562 54.191406 62.40625 54.605469 58.519531 54.605469 C 54.582031 54.605469 51.390625 54.191406 51.390625 53.636719 C 51.390625 53.132812 54.582031 52.671875 58.472656 52.671875 C 62.40625 52.671875 65.601562 53.085938 65.601562 53.636719 L 58.472656 53.636719 Z M 65.601562 53.636719 "/>
<path style="fill-rule:evenodd;fill:rgb(100%,100%,100%);fill-opacity:1;stroke-width:2.9;stroke-linecap:butt;stroke-linejoin:miter;stroke:rgb(100%,100%,100%);stroke-opacity:1;stroke-dasharray:0.294583,0.294583;stroke-miterlimit:4;" d="M 116.496563 124.799051 L 137.100938 124.799051 L 128.300625 194.097934 L 119.10375 191.097101 C 119.10375 191.097101 116.496563 124.799051 116.496563 124.799051 Z M 116.496563 124.799051 " transform="matrix(0.462963,0,0,0.46081,0,0.046081)"/>
<path style=" stroke:none;fill-rule:evenodd;fill:rgb(100%,100%,100%);fill-opacity:1;" d="M 58.84375 21.980469 C 58.84375 22.210938 57.128906 22.394531 55 22.394531 C 52.917969 22.394531 51.203125 22.210938 51.203125 21.980469 C 51.203125 21.75 52.871094 21.519531 55 21.519531 C 57.128906 21.519531 58.84375 21.75 58.84375 21.980469 L 55 21.980469 Z M 58.84375 21.980469 "/>
<path style=" stroke:none;fill-rule:evenodd;fill:url(#linear2);" d="M 50.507812 23.179688 C 62.730469 23.179688 79.167969 31.289062 83.566406 37.742188 C 84.167969 38.660156 84.535156 39.492188 84.675781 40.320312 C 82.082031 45.621094 69.304688 51.289062 55.554688 51.289062 C 41.621094 51.289062 26.109375 43.410156 27.269531 38.15625 C 29.167969 31.011719 40.371094 29.953125 50.507812 23.179688 Z M 50.507812 23.179688 "/>
<path style=" stroke:none;fill-rule:evenodd;fill:rgb(74.509805%,50.588238%,14.117648%);fill-opacity:1;" d="M 57.128906 35.25 C 45.925781 35.25 38.242188 38.660156 32.128906 44.054688 C 35.648438 48.015625 45.601562 40.089844 56.804688 40.089844 C 68.425781 40.089844 79.535156 48.015625 82.683594 43.777344 C 75.742188 37.601562 68.75 35.25 57.128906 35.25 Z M 57.128906 35.25 "/>
<path style=" stroke:none;fill-rule:evenodd;fill:rgb(15.686275%,9.019608%,4.313726%);fill-opacity:1;" d="M 56.898438 36.402344 C 45.972656 36.402344 38.65625 39.953125 33.101562 45.019531 C 38.007812 48.570312 45.464844 50.917969 56.34375 50.917969 C 67.683594 50.917969 76.527344 48.617188 81.757812 44.46875 C 75.371094 38.660156 67.316406 36.402344 56.898438 36.402344 Z M 56.898438 36.402344 "/>
<use xlink:href="#surface5" mask="url(#mask0)"/>
<path style=" stroke:none;fill-rule:evenodd;fill:url(#linear3);" d="M 48.933594 3.363281 C 63.007812 8.753906 51.34375 45.480469 50.507812 47.648438 C 45.601562 44.882812 46.433594 27.371094 39.027344 28.847656 C 27.316406 31.242188 57.359375 12.949219 48.933594 3.363281 Z M 48.933594 3.363281 "/>
<path style=" stroke:none;fill-rule:evenodd;fill:url(#linear4);" d="M 47.269531 9.769531 C 50.601562 -1.335938 40.648438 27.464844 34.628906 34.746094 C 39.675781 47.464844 51.34375 44.789062 56.390625 55.203125 C 56.390625 55.203125 43.566406 37.09375 47.269531 29.214844 C 50.972656 21.335938 47.269531 9.769531 47.269531 9.769531 Z M 47.269531 9.769531 "/>
<path style=" stroke:none;fill-rule:evenodd;fill:url(#radial5);" d="M 24.675781 60.597656 C 24.722656 61.058594 24.027344 61.75 23.054688 62.117188 C 22.082031 62.484375 21.203125 62.441406 21.109375 61.980469 C 21.019531 61.472656 21.757812 60.78125 22.730469 60.414062 C 23.703125 60.042969 24.582031 60.089844 24.675781 60.550781 L 22.871094 61.289062 Z M 24.675781 60.597656 "/>
<path style=" stroke:none;fill-rule:evenodd;fill:url(#linear5);" d="M 23.195312 43.132812 C 23.425781 43.316406 23.703125 43.5 23.980469 43.363281 C 24.121094 43.132812 24.027344 42.300781 24.257812 42.71875 C 24.859375 43.824219 26.109375 47.695312 26.34375 48.0625 C 27.917969 50.273438 26.945312 49.996094 27.453125 52.808594 C 28.566406 59.261719 22.59375 64.699219 15.601562 63.269531 C 8.890625 61.886719 5.554688 56.21875 5.371094 51.75 C 5.601562 45.390625 10.277344 42.257812 13.148438 41.378906 C 17.917969 40.320312 21.527344 41.796875 23.195312 43.132812 Z M 11.25 53.132812 C 11.296875 53.730469 11.296875 57.09375 16.621094 58.523438 C 21.25 59.722656 25.046875 55.390625 24.351562 51.195312 C 23.609375 47.003906 19.535156 45.019531 15 45.019531 C 10.464844 45.019531 10.742188 48.707031 11.25 53.132812 Z M 11.25 53.132812 "/>
<path style="fill-rule:evenodd;fill:url(#radial6);stroke-width:0.4;stroke-linecap:butt;stroke-linejoin:miter;stroke:rgb(85.490197%,85.490197%,85.490197%);stroke-opacity:1;stroke-miterlimit:4;" d="M 38.399062 94.604235 C 52.396875 94.900927 57.197813 98.698591 60.699375 112.30406 C 66.200625 133.996517 71.600625 155.697452 76.798125 177.50011 L 72.59625 174.999416 C 72.59625 174.999416 66.698438 162.699394 53.603438 149.297371 C 40.19625 138.201073 20.199375 140.396598 15.103125 119.500971 C 12.301875 105.997225 23.700938 95.00265 37.099688 94.604235 C 37.49625 94.604235 37.935 94.604235 38.399062 94.604235 Z M 24.40125 116.898554 C 25.202813 125.901051 31.800938 132.402855 41.504063 132.402855 C 51.3 132.402855 58.497188 125.10422 57.602813 116.101723 C 56.80125 107.200949 48.996563 101.495977 39.200625 101.495977 C 29.4975 101.495977 23.498438 107.99778 24.40125 116.898554 Z M 24.40125 116.898554 " transform="matrix(0.462963,0,0,0.46081,0,0.046081)"/>
<path style=" stroke:none;fill-rule:evenodd;fill:url(#radial7);" d="M 15.324219 43.867188 C 15.417969 44.328125 14.675781 45.019531 13.703125 45.390625 C 12.730469 45.757812 11.851562 45.710938 11.757812 45.25 C 11.714844 44.746094 12.40625 44.054688 13.378906 43.683594 C 14.398438 43.316406 15.230469 43.363281 15.324219 43.867188 L 13.566406 44.558594 Z M 15.324219 43.867188 "/>
<path style=" stroke:none;fill-rule:evenodd;fill:url(#linear6);" d="M 26.390625 47.371094 C 26.390625 47.371094 27.730469 48.890625 27.824219 48.9375 C 34.027344 54.972656 36.480469 82.023438 36.480469 82.023438 L 35.417969 81.746094 C 35.417969 81.746094 26.390625 47.371094 26.390625 47.371094 Z M 26.390625 47.371094 "/>
<path style=" stroke:none;fill-rule:evenodd;fill:url(#linear7);" d="M 24.859375 45.480469 C 24.859375 45.480469 25.554688 45.898438 26.296875 46.726562 C 27.082031 47.507812 28.285156 49.121094 28.285156 49.121094 L 29.167969 50.503906 L 25.972656 46.863281 C 25.972656 46.863281 24.859375 45.480469 24.859375 45.480469 Z M 24.859375 45.480469 "/>
<path style=" stroke:none;fill-rule:evenodd;fill:rgb(90.196079%,90.196079%,90.196079%);fill-opacity:1;" d="M 18.425781 65.160156 C 20.507812 66.035156 22.546875 67 24.351562 68.476562 C 30.695312 74.789062 33.703125 80.550781 33.703125 80.550781 L 35.648438 81.746094 C 34.121094 76.21875 32.546875 70.6875 30.972656 65.160156 C 30.972656 65.160156 18.425781 65.160156 18.425781 65.160156 Z M 18.425781 65.160156 "/>
</g>
</svg>
