<svg version="1.2" xmlns="http://www.w3.org/2000/svg" viewBox="0 0 216 232" width="200" height="215">
	<title>coffee-34251-svg</title>
	<defs>
		<radialGradient id="g1" cx="0" cy="0" r="1" gradientUnits="userSpaceOnUse" gradientTransform="matrix(82.615,0,0,82.615,110.528,187.104)">
			<stop offset="0" stop-color="#000000" stop-opacity=".69"/>
			<stop offset="1" stop-color="#000000" stop-opacity="0"/>
		</radialGradient>
		<linearGradient id="g2" x2="1" gradientUnits="userSpaceOnUse" gradientTransform="matrix(42.986,0,0,91.934,51.495,-17.718)">
			<stop offset="0" stop-color="#999999" stop-opacity="1"/>
			<stop offset="1" stop-color="#999999" stop-opacity="0"/>
		</linearGradient>
		<radialGradient id="g3" cx="0" cy="0" r="1" gradientUnits="userSpaceOnUse" gradientTransform="matrix(50.159,-0.087,.087,50.159,124.45,147.272)">
			<stop offset="0" stop-color="#ffffff" stop-opacity="1"/>
			<stop offset="1" stop-color="#ffffff" stop-opacity="0"/>
		</radialGradient>
		<radialGradient id="g4" cx="0" cy="0" r="1" gradientUnits="userSpaceOnUse" gradientTransform="matrix(-33.353,1.012,-1.012,-33.353,125.152,115.107)">
			<stop offset="0" stop-color="#ffffff" stop-opacity="1"/>
			<stop offset="1" stop-color="#ffffff" stop-opacity="0"/>
		</radialGradient>
		<radialGradient id="g5" cx="0" cy="0" r="1" gradientUnits="userSpaceOnUse" gradientTransform="matrix(-17.237,-10.216,10.216,-17.237,117.109,56.352)">
			<stop offset="0" stop-color="#ffffff" stop-opacity="1"/>
			<stop offset="1" stop-color="#ffffff" stop-opacity="0"/>
		</radialGradient>
		<linearGradient id="g6" x2="1" gradientUnits="userSpaceOnUse" gradientTransform="matrix(-60.76,-3.3,1.198,-22.053,185.901,88.352)">
			<stop offset="0" stop-color="#999999" stop-opacity="1"/>
			<stop offset="1" stop-color="#999999" stop-opacity="0"/>
		</linearGradient>
		<linearGradient id="g7" x2="1" gradientUnits="userSpaceOnUse" gradientTransform="matrix(24.083,-13.519,9.296,16.559,57.311,95.564)">
			<stop offset="0" stop-color="#999999" stop-opacity="1"/>
			<stop offset="1" stop-color="#999999" stop-opacity="0"/>
		</linearGradient>
		<radialGradient id="g8" cx="0" cy="0" r="1" gradientUnits="userSpaceOnUse" gradientTransform="matrix(19.389,0,0,19.389,113.71,90.133)">
			<stop offset="0" stop-color="#e3b36a" stop-opacity="1"/>
			<stop offset="1" stop-color="#e3b36a" stop-opacity="0"/>
		</radialGradient>
		<linearGradient id="g9" x2="1" gradientUnits="userSpaceOnUse" gradientTransform="matrix(41.57,99.692,-57.822,24.111,65.241,3.59)">
			<stop offset="0" stop-color="#cbf9ff" stop-opacity=".66"/>
			<stop offset="1" stop-color="#fff2f2" stop-opacity="0"/>
		</linearGradient>
		<linearGradient id="g10" x2="1" gradientUnits="userSpaceOnUse" gradientTransform="matrix(-4.3,182.49,-84.709,-1.996,121.811,-69.408)">
			<stop offset="0" stop-color="#cbf9ff" stop-opacity=".66"/>
			<stop offset="1" stop-color="#fff2f2" stop-opacity="0"/>
		</linearGradient>
		<radialGradient id="g11" cx="0" cy="0" r="1" gradientUnits="userSpaceOnUse" gradientTransform="matrix(3.83,-1.501,1.501,3.83,49.439,132.852)">
			<stop offset="0" stop-color="#ffffff" stop-opacity="1"/>
			<stop offset="1" stop-color="#ffffff" stop-opacity="0"/>
		</radialGradient>
		<linearGradient id="g12" x2="1" gradientUnits="userSpaceOnUse" gradientTransform="matrix(43.41,-14.163,14.984,45.926,16.156,120.021)">
			<stop offset="0" stop-color="#999999" stop-opacity="1"/>
			<stop offset=".5" stop-color="#ffffff" stop-opacity=".5"/>
			<stop offset="1" stop-color="#999999" stop-opacity="1"/>
		</linearGradient>
		<radialGradient id="g13" cx="0" cy="0" r="1" gradientUnits="userSpaceOnUse" gradientTransform="matrix(-27.403,-45.527,45.527,-27.403,55.469,109.891)">
			<stop offset="0" stop-color="#e6e6e6" stop-opacity="1"/>
			<stop offset=".5" stop-color="#e6e6e6" stop-opacity="1"/>
			<stop offset=".75" stop-color="#e6e6e6" stop-opacity="1"/>
			<stop offset="1" stop-color="#e6e6e6" stop-opacity="0"/>
		</radialGradient>
		<radialGradient id="g14" cx="0" cy="0" r="1" gradientUnits="userSpaceOnUse" gradientTransform="matrix(3.83,-1.501,1.501,3.83,29.279,96.562)">
			<stop offset="0" stop-color="#ffffff" stop-opacity="1"/>
			<stop offset="1" stop-color="#ffffff" stop-opacity="0"/>
		</radialGradient>
		<linearGradient id="g15" x2="1" gradientUnits="userSpaceOnUse" gradientTransform="matrix(3.292,0,0,11.37,33.211,2.313)">
			<stop offset="0" stop-color="#e6e6e6" stop-opacity="1"/>
			<stop offset="1" stop-color="#e6e6e6" stop-opacity="0"/>
		</linearGradient>
		<linearGradient id="g16" x2="1" gradientUnits="userSpaceOnUse" gradientTransform="matrix(5.837,6.723,-0.39,.339,57.166,103.423)">
			<stop offset="0" stop-color="#e6e6e6" stop-opacity="1"/>
			<stop offset="1" stop-color="#e6e6e6" stop-opacity="0"/>
		</linearGradient>
	</defs>
	<style>
		.s0 { fill: url(#g1) } 
		.s1 { fill: #999999 } 
		.s2 { fill: #cccccc } 
		.s3 { fill: #cccccc;stroke: #dadada;stroke-width: .5 } 
		.s4 { fill: #ffffff } 
		.s5 { fill: url(#g2) } 
		.s6 { fill: url(#g3) } 
		.s7 { fill: url(#g4) } 
		.s8 { fill: url(#g5) } 
		.s9 { fill: url(#g6) } 
		.s10 { fill: #ffffff;stroke: #ffffff;stroke-width: 2.9;stroke-dasharray: 0.29458349,0.29458349 } 
		.s11 { fill: url(#g7) } 
		.s12 { fill: #be8124 } 
		.s13 { fill: #28170b } 
		.s14 { opacity: .5;fill: url(#g8) } 
		.s15 { fill: url(#g9) } 
		.s16 { fill: url(#g10) } 
		.s17 { fill: url(#g11) } 
		.s18 { fill: url(#g12) } 
		.s19 { fill: url(#g13);stroke: #dadada;stroke-width: .4 } 
		.s20 { fill: url(#g14) } 
		.s21 { fill: url(#g15) } 
		.s22 { fill: url(#g16) } 
		.s23 { fill: #e6e6e6 } 
	</style>
	<g>
		<path fill-rule="evenodd" class="s0" d="m209.9 187.1c0 9.8-10.5 19.1-29.1 26-18.6 6.9-43.9 10.7-70.3 10.7-26.3 0-51.6-3.8-70.2-10.7-18.7-6.9-29.2-16.2-29.2-26 0-9.7 10.5-19.1 29.2-26 18.6-6.9 43.9-10.7 70.2-10.7 26.4 0 51.7 3.8 70.3 10.7 18.6 6.9 29.1 16.3 29.1 26z"/>
		<path fill-rule="evenodd" class="s1" d="m162.4 181.7c0 14.3-17.9 25.9-40.1 25.9-22.2 0-40.2-11.5-40.2-25.8 0-14.3 17.9-26 40.1-26 22.1 0 40.1 11.5 40.2 25.8l-40.1 0.1z"/>
		<g>
			<g>
				<path fill-rule="evenodd" class="s2" d="m122 44.2c-40.2 0-72.8 16.8-72.8 37.5 0 3 0.7 5.9 2 8.7l27.8 88.5c3 14.9 21 26.3 42.8 26.3 6.6 0 12.9-1 18.5-2.9 12.8-4.3 22.2-13 24.3-23.4h0.1l28.8-89.7h-0.3q1.5-3.6 1.5-7.5c0-20.7-32.6-37.5-72.7-37.5z"/>
				<path fill-rule="evenodd" class="s3" d="m193.2 89.5l0.6-2.6 0.5-3.1"/>
			</g>
		</g>
		<path fill-rule="evenodd" class="s4" d="m90.2 110.1c47 13.3 103.6-2.8 101.8-29.5-1.7-27.1-57.7-41.9-105.7-28.4-47 13.3-46.7 45.4 1.2 58 48.8 12.8 103-3.5 103.1-30.7 0-26.6-56.9-42.5-103-28.5-47.1 14.4-45.3 45.5 2.6 59.1z"/>
		<path fill-rule="evenodd" class="s5" d="m51.5 90.8c0 0 5.6 10.4 18.6 18.3 21.9 9 23.5 7.8 23.5 7.8l9.9 85.1c0 0-7.9-3-13.6-6.9-5.7-4-9.8-12.4-9.8-12.4 0 0-28.6-91.9-28.6-91.9z"/>
		<path fill-rule="evenodd" class="s6" d="m79.5 193.3l42.8 10.6 50.4-11.2 1.4-74.9c0 0-34.3 3-53.8 3.1-21 0-45.1-3.7-45.1-3.7 0 0 4.3 76.1 4.3 76.1z"/>
		<path fill-rule="evenodd" class="s7" d="m118.5 131.6c-14.7 0-26.7-8.4-26.7-18.9 0-10.4 12.4-22.5 26.7-18.9l51.7 12.9c-17.8 8.7-28.7 21.9-51.7 24.9z"/>
		<path fill-rule="evenodd" class="s8" d="m141.8 57.2c0 10.1-11.7 17.6-26.1 16.7-14.5-0.9-26.2-9.8-26.3-20 0-10.1 11.7-17.6 26.2-16.8 14.4 0.9 26.2 9.8 26.2 20l-26.2-1.6z"/>
		<path fill-rule="evenodd" class="s9" d="m155.2 68.8c-30.7-2.4-92.9 5.4-94.9 19.8 5.6 11.5 33.2 23.8 62.9 23.8 30.1 0 65.1-16.2 62.6-27.6-0.2 3.1-0.7-12.7-30.6-16z"/>
		<path fill-rule="evenodd" class="s4" d="m141.7 116.3c0 1.2-6.9 2.1-15.3 2.1-8.5 0-15.4-0.9-15.4-2.1 0-1.1 6.9-2.1 15.3-2.1 8.5 0 15.4 0.9 15.4 2.1h-15.4z"/>
		<path fill-rule="evenodd" class="s10" d="m116.5 124.8h20.6l-8.8 69.3-9.2-3c0 0-2.6-66.3-2.6-66.3z"/>
		<path fill-rule="evenodd" class="s4" d="m127.1 47.6c0 0.5-3.7 0.9-8.3 0.9-4.5 0-8.2-0.4-8.2-0.9 0-0.5 3.6-1 8.2-1 4.6 0 8.3 0.5 8.3 1h-8.3z"/>
		<path fill-rule="evenodd" class="s11" d="m109.1 50.2c26.4 0 61.9 17.6 71.4 31.6 1.3 2 2.1 3.8 2.4 5.6-5.6 11.5-33.2 23.8-62.9 23.8-30.1 0-63.6-17.1-61.1-28.5 4.1-15.5 28.3-17.8 50.2-32.5z"/>
		<g>
			<path fill-rule="evenodd" class="s12" d="m123.4 76.4c-24.2 0-40.8 7.4-54 19.1 7.6 8.6 29.1-8.6 53.3-8.6 25.1 0 49.1 17.2 55.9 8-15-13.4-30.1-18.5-55.2-18.5z"/>
			<path fill-rule="evenodd" class="s13" d="m122.9 78.9c-23.6 0-39.4 7.7-51.4 18.7 10.6 7.7 26.7 12.8 50.2 12.8 24.5 0 43.6-5 54.9-14-13.8-12.6-31.2-17.5-53.7-17.5z"/>
		</g>
		<path fill-rule="evenodd" class="s14" d="m133.1 90.1c0 6.5-8.7 11.7-19.4 11.7-10.7 0-19.4-5.2-19.4-11.6 0-6.5 8.7-11.7 19.4-11.8 10.7 0 19.4 5.2 19.4 11.7h-19.4z"/>
		<path fill-rule="evenodd" class="s15" d="m105.7 7.2c30.4 11.7 5.2 91.4 3.4 96.1-10.6-6-8.8-44-24.8-40.8-25.3 5.2 39.6-34.5 21.4-55.3z"/>
		<path fill-rule="evenodd" class="s16" d="m102.1 21.1c7.2-24.1-14.3 38.4-27.3 54.2 10.9 27.6 36.1 21.8 47 44.4 0 0-27.7-39.3-19.7-56.4 8-17.1 0-42.2 0-42.2z"/>
		<path fill-rule="evenodd" class="s17" d="m53.3 131.4c0.1 1-1.4 2.5-3.5 3.3-2.1 0.8-4 0.7-4.2-0.3-0.2-1.1 1.4-2.6 3.5-3.4 2.1-0.8 4-0.7 4.2 0.3l-3.9 1.6z"/>
		<path fill-rule="evenodd" class="s18" d="m50.1 93.5c0.5 0.4 1.1 0.8 1.7 0.5 0.3-0.5 0.1-2.3 0.6-1.4 1.3 2.4 4 10.8 4.5 11.6 3.4 4.8 1.3 4.2 2.4 10.3 2.4 14-10.5 25.8-25.6 22.7-14.5-3-21.7-15.3-22.1-25 0.5-13.8 10.6-20.6 16.8-22.5 10.3-2.3 18.1 0.9 21.7 3.8zm-25.8 21.7c0.1 1.3 0.1 8.6 11.6 11.7 10 2.6 18.2-6.8 16.7-15.9-1.6-9.1-10.4-13.4-20.2-13.4-9.8 0-9.2 8-8.1 17.6z"/>
		<path fill-rule="evenodd" class="s19" d="m38.4 94.6c14 0.3 18.8 4.1 22.3 17.7 5.5 21.7 10.9 43.4 16.1 65.2l-4.2-2.5c0 0-5.9-12.3-19-25.7-13.4-11.1-33.4-8.9-38.5-29.8-2.8-13.5 8.6-24.5 22-24.9q0.6 0 1.3 0zm-14 22.3c0.8 9 7.4 15.5 17.1 15.5 9.8 0 17-7.3 16.1-16.3-0.8-8.9-8.6-14.6-18.4-14.6-9.7 0-15.7 6.5-14.8 15.4z"/>
		<path fill-rule="evenodd" class="s20" d="m33.1 95.1c0.2 1-1.4 2.5-3.5 3.3-2.1 0.8-4 0.7-4.2-0.3-0.1-1.1 1.4-2.6 3.5-3.4 2.2-0.8 4-0.7 4.2 0.4l-3.8 1.5z"/>
		<path fill-rule="evenodd" class="s21" d="m57 102.7c0 0 2.9 3.3 3.1 3.4 13.4 13.1 18.7 71.8 18.7 71.8l-2.3-0.6c0 0-19.5-74.6-19.5-74.6z"/>
		<path fill-rule="evenodd" class="s22" d="m53.7 98.6c0 0 1.5 0.9 3.1 2.7 1.7 1.7 4.3 5.2 4.3 5.2l1.9 3-6.9-7.9c0 0-2.4-3-2.4-3z"/>
		<path fill-rule="evenodd" class="s23" d="m39.8 141.3c4.5 1.9 8.9 4 12.8 7.2 13.7 13.7 20.2 26.2 20.2 26.2l4.2 2.6c-3.3-12-6.7-24-10.1-36 0 0-27.1 0-27.1 0z"/>
	</g>
</svg>