<svg version="1.2" xmlns="http://www.w3.org/2000/svg" viewBox="0 0 937 582" width="200" height="124">
	<title>cooking-pot-146459-svg</title>
	<defs>
		<linearGradient id="g1" x2="1" gradientUnits="userSpaceOnUse" gradientTransform="matrix(94.2,5.7,-3.765,62.227,-27.5,114.2)">
			<stop offset="0" stop-color="#ffffff"/>
			<stop offset="1" stop-color="#666666"/>
		</linearGradient>
		<linearGradient id="g2" x2="1" gradientUnits="userSpaceOnUse" gradientTransform="matrix(332.44,-11.66,3.312,94.435,495.894,223.7)">
			<stop offset="0" stop-color="#7f7f7f"/>
			<stop offset=".186" stop-color="#8a8a8a"/>
			<stop offset=".269" stop-color="#ededed"/>
			<stop offset=".646" stop-color="#929292"/>
			<stop offset=".704" stop-color="#f1f1f1"/>
			<stop offset=".81" stop-color="#c3c3c3"/>
			<stop offset="1" stop-color="#434343"/>
		</linearGradient>
		<linearGradient id="g3" x2="1" gradientUnits="userSpaceOnUse" gradientTransform="matrix(639.5,0,0,295.374,72.2,1746.3)">
			<stop offset="0" stop-color="#a0a0a0" stop-opacity="1"/>
			<stop offset=".556" stop-color="#cfcfcf" stop-opacity=".87"/>
			<stop offset=".647" stop-color="#ffffff" stop-opacity=".74"/>
			<stop offset=".805" stop-color="#e4e4e4" stop-opacity=".89"/>
			<stop offset=".875" stop-color="#a0a0a0" stop-opacity=".12"/>
			<stop offset="1" stop-color="#3e3e3e" stop-opacity=".78"/>
		</linearGradient>
		<linearGradient id="g4" x2="1" gradientUnits="userSpaceOnUse" gradientTransform="matrix(-578.6,2.938,-1.09,-214.613,602.2,308.434)">
			<stop offset="0" stop-color="#a0a0a0" stop-opacity="0"/>
			<stop offset=".556" stop-color="#cfcfcf" stop-opacity=".87"/>
			<stop offset=".647" stop-color="#ffffff" stop-opacity=".68"/>
			<stop offset=".805" stop-color="#e4e4e4" stop-opacity=".44"/>
			<stop offset=".844" stop-color="#a0a0a0" stop-opacity=".12"/>
			<stop offset="1" stop-color="#3e3e3e" stop-opacity="0"/>
		</linearGradient>
		<filter x="-50%" y="-50%" width="200%" height="200%" id="f1"> <feGaussianBlur stdDeviation="17.2"/> </filter>
		<linearGradient id="g5" x2="1" gradientUnits="userSpaceOnUse" gradientTransform="matrix(-18.927,187.271,-521.143,-52.67,272.802,306.391)">
			<stop offset="0" stop-color="#737373" stop-opacity="1"/>
			<stop offset="1" stop-color="#3b2c28" stop-opacity="0"/>
		</linearGradient>
		<filter x="-50%" y="-50%" width="200%" height="200%" id="f2"> <feGaussianBlur stdDeviation="8.7"/> </filter>
		<linearGradient id="g6" x2="1" gradientUnits="userSpaceOnUse" gradientTransform="matrix(72.2,0,0,106.632,166.4,1746.3)">
			<stop offset="0" stop-color="#ffffff" stop-opacity="1"/>
			<stop offset="1" stop-color="#a0a0a0" stop-opacity="0"/>
		</linearGradient>
		<linearGradient id="g7" x2="1" gradientUnits="userSpaceOnUse" gradientTransform="matrix(229.3,17.4,-9.335,123.021,602.2,231.1)">
			<stop offset="0" stop-color="#7f7f7f"/>
			<stop offset=".185" stop-color="#8a8a8a"/>
			<stop offset=".282" stop-color="#cfcfcf"/>
			<stop offset=".41" stop-color="#929292"/>
			<stop offset=".771" stop-color="#f7f7f7"/>
			<stop offset=".81" stop-color="#c3c3c3"/>
			<stop offset="1" stop-color="#434343"/>
		</linearGradient>
		<filter x="-50%" y="-50%" width="200%" height="200%" id="f3"> <feGaussianBlur stdDeviation="1.4"/> </filter>
		<linearGradient id="g8" x2="1" gradientUnits="userSpaceOnUse" gradientTransform="matrix(-7.9,-19.9,34.902,-13.855,727.9,212)">
			<stop offset="0" stop-color="#ffffff" stop-opacity="0"/>
			<stop offset="1" stop-color="#191919" stop-opacity="1"/>
		</linearGradient>
		<linearGradient id="g9" x2="1" gradientUnits="userSpaceOnUse" gradientTransform="matrix(26.4,-97.4,149.205,40.442,31.4,195.2)">
			<stop offset="0" stop-color="#7f7f7f"/>
			<stop offset=".342" stop-color="#8a8a8a"/>
			<stop offset=".491" stop-color="#cfcfcf"/>
			<stop offset=".762" stop-color="#929292"/>
			<stop offset=".937" stop-color="#c3c3c3"/>
			<stop offset="1" stop-color="#ffffff"/>
		</linearGradient>
		<linearGradient id="g10" x2="1" gradientUnits="userSpaceOnUse" gradientTransform="matrix(-330.903,.001,0,-72.502,678.84,125.526)">
			<stop offset="0" stop-color="#ffffff"/>
			<stop offset="1" stop-color="#666666"/>
		</linearGradient>
		<linearGradient id="g11" x2="1" gradientUnits="userSpaceOnUse" gradientTransform="matrix(-330.903,.001,0,-72.502,678.84,125.526)">
			<stop offset="0" stop-color="#ffffff"/>
			<stop offset="1" stop-color="#666666"/>
		</linearGradient>
		<linearGradient id="g12" x2="1" gradientUnits="userSpaceOnUse" gradientTransform="matrix(80.774,-280.3,835.682,240.818,281.762,353.269)">
			<stop offset="0" stop-color="#000000" stop-opacity="1"/>
			<stop offset="1" stop-color="#000000" stop-opacity="0"/>
		</linearGradient>
		<filter x="-50%" y="-50%" width="200%" height="200%" id="f4"> <feGaussianBlur stdDeviation="7.5"/> </filter>
		<linearGradient id="g13" x2="1" gradientUnits="userSpaceOnUse" gradientTransform="matrix(-3.3,-13.8,44.193,-10.568,507.9,557.7)">
			<stop offset="0" stop-color="#ffffff" stop-opacity="1"/>
			<stop offset="1" stop-color="#ffffff" stop-opacity="0"/>
		</linearGradient>
		<linearGradient id="g14" x2="1" gradientUnits="userSpaceOnUse" gradientTransform="matrix(-643.563,-13.799,2.998,-139.813,707.502,118.386)">
			<stop offset="0" stop-color="#ffffff"/>
			<stop offset="1" stop-color="#666666"/>
		</linearGradient>
		<linearGradient id="g15" x2="1" gradientUnits="userSpaceOnUse" gradientTransform="matrix(628.119,16.985,-3.38,124.985,82.63,169.852)">
			<stop offset="0" stop-color="#a0a0a0" stop-opacity="1"/>
			<stop offset=".117" stop-color="#c3c3c3" stop-opacity="1"/>
			<stop offset=".198" stop-color="#949494" stop-opacity=".99"/>
			<stop offset=".22" stop-color="#584e4e" stop-opacity=".87"/>
			<stop offset=".346" stop-color="#3e3e3e" stop-opacity=".74"/>
			<stop offset=".536" stop-color="#a9a9a9" stop-opacity=".81"/>
			<stop offset=".791" stop-color="#e4e4e4" stop-opacity=".89"/>
			<stop offset=".8" stop-color="#ffffff" stop-opacity="1"/>
			<stop offset=".868" stop-color="#ffffff" stop-opacity=".89"/>
			<stop offset="1" stop-color="#3e3e3e" stop-opacity=".78"/>
		</linearGradient>
		<radialGradient id="g16" cx="0" cy="0" r="1" gradientUnits="userSpaceOnUse" gradientTransform="matrix(303.55,-21.08,21.08,303.55,397.328,126.743)">
			<stop offset="0" stop-color="#a3a3a3"/>
			<stop offset="1" stop-color="#666666"/>
		</radialGradient>
		<linearGradient id="g17" x2="1" gradientUnits="userSpaceOnUse" gradientTransform="matrix(217.3,-9.27,3.374,79.095,246.231,61.79)">
			<stop offset="0" stop-color="#3b3b3b" stop-opacity="1"/>
			<stop offset="1" stop-color="#3b3b3b" stop-opacity="0"/>
		</linearGradient>
		<linearGradient id="g18" x2="1" gradientUnits="userSpaceOnUse" gradientTransform="matrix(87.6,-72.6,57.881,69.84,320.431,72.62)">
			<stop offset="0" stop-color="#ffffff"/>
			<stop offset="1" stop-color="#666666"/>
		</linearGradient>
		<filter x="-50%" y="-50%" width="200%" height="200%" id="f5"> <feGaussianBlur stdDeviation="1"/> </filter>
		<filter x="-50%" y="-50%" width="200%" height="200%" id="f6"> <feGaussianBlur stdDeviation="1.1"/> </filter>
		<filter x="-50%" y="-50%" width="200%" height="200%" id="f7"> <feGaussianBlur stdDeviation="10.8"/> </filter>
		<radialGradient id="g19" cx="0" cy="0" r="1" gradientUnits="userSpaceOnUse" gradientTransform="matrix(248.552,11.409,-11.409,248.552,227.229,131.67)">
			<stop offset="0" stop-color="#e3e3e3"/>
			<stop offset="1" stop-color="#f1f1f1"/>
		</radialGradient>
		<linearGradient id="g20" x2="1" gradientUnits="userSpaceOnUse" gradientTransform="matrix(12.8,53.2,-97.725,23.513,581.741,119.56)">
			<stop offset="0" stop-color="#525252" stop-opacity="1"/>
			<stop offset="1" stop-color="#525252" stop-opacity="0"/>
		</linearGradient>
		<filter x="-50%" y="-50%" width="200%" height="200%" id="f8"> <feGaussianBlur stdDeviation=".8"/> </filter>
		<linearGradient id="g21" x2="1" gradientUnits="userSpaceOnUse" gradientTransform="matrix(-119.1,-3.1,2.934,-112.727,139.5,193.8)">
			<stop offset="0" stop-color="#7f7f7f"/>
			<stop offset=".185" stop-color="#8a8a8a"/>
			<stop offset=".622" stop-color="#929292"/>
			<stop offset=".694" stop-color="#c3c3c3"/>
			<stop offset="1" stop-color="#ffffff"/>
		</linearGradient>
		<filter x="-50%" y="-50%" width="200%" height="200%" id="f9"> <feGaussianBlur stdDeviation=".9"/> </filter>
		<filter x="-50%" y="-50%" width="200%" height="200%" id="f10"> <feGaussianBlur stdDeviation="26"/> </filter>
		<radialGradient id="g22" cx="0" cy="0" r="1" gradientUnits="userSpaceOnUse" gradientTransform="matrix(-392.902,-20.806,20.806,-392.902,543.952,445.349)">
			<stop offset="0" stop-color="#000000" stop-opacity="1"/>
			<stop offset="1" stop-color="#000000" stop-opacity="0"/>
		</radialGradient>
	</defs>
	<style>
		.s0 { fill: #5c5c5c } 
		.s1 { fill: #a0a0a0 } 
		.s2 { fill: url(#g1) } 
		.s3 { fill: url(#g2) } 
		.s4 { fill: url(#g3) } 
		.s5 { opacity: .3;fill: url(#g4) } 
		.s6 { filter: url(#f1);fill: url(#g5) } 
		.s7 { filter: url(#f2);fill: url(#g6) } 
		.s8 { fill: #3b3b3b } 
		.s9 { fill: url(#g7) } 
		.s10 { filter: url(#f3);fill: #ffffff } 
		.s11 { opacity: .4;fill: url(#g8) } 
		.s12 { fill: #fafafa } 
		.s13 { fill: url(#g9) } 
		.s14 { fill: #ffffff } 
		.s15 { fill: url(#g10) } 
		.s16 { fill: url(#g11) } 
		.s17 { fill: url(#g12) } 
		.s18 { fill: none;stroke: #a4a4a4;stroke-linecap: round;stroke-linejoin: round;stroke-width: 6 } 
		.s19 { filter: url(#f4);fill: #656565 } 
		.s20 { fill: none;stroke: url(#g13);stroke-width: 2.6 } 
		.s21 { fill: url(#g14);stroke: #aeaeae;stroke-linecap: round;stroke-linejoin: round;stroke-width: 4.3 } 
		.s22 { fill: url(#g15);stroke: #868686;stroke-linecap: round;stroke-linejoin: round;stroke-width: .8 } 
		.s23 { fill: url(#g16) } 
		.s24 { fill: #c6c6c6 } 
		.s25 { fill: url(#g17) } 
		.s26 { fill: url(#g18) } 
		.s27 { filter: url(#f5);fill: none;stroke: #e2e2e2;stroke-linecap: round;stroke-linejoin: round;stroke-width: 3.6 } 
		.s28 { fill: #dcdcdc } 
		.s29 { filter: url(#f6);fill: #dcdcdc } 
		.s30 { filter: url(#f7);fill: url(#g19) } 
		.s31 { filter: url(#f2);fill: #ffffff } 
		.s32 { fill: url(#g20) } 
		.s33 { fill: #e3e3e3 } 
		.s34 { fill: #c4c4c4 } 
		.s35 { filter: url(#f8);fill: url(#g21) } 
		.s36 { fill: #5d5555 } 
		.s37 { filter: url(#f9);fill: #ffffff } 
		.s38 { opacity: .4;filter: url(#f10);fill: url(#g22) } 
	</style>
	<g>
		<path fill-rule="evenodd" class="s0" d="m72.2 145.3c0 0 7.6 308.6 12.7 318.8 4.4 8.8 34.9 115.7 329.7 117.8 238.7 1.6 276.4-93.3 280.8-103.3 5-11.5 16.3-306.1 16.3-306.1 0 0-639.5-27.2-639.5-27.2z"/>
		<path fill-rule="evenodd" class="s1" d="m72.2 134.4c0 0 7.6 308.6 12.7 318.8 4.4 8.8 34.9 115.7 329.7 117.8 238.7 1.6 276.4-93.3 280.8-103.3 5-11.5 16.3-306.1 16.3-306.1 0 0-639.5-27.2-639.5-27.2z"/>
		<path fill-rule="evenodd" class="s2" d="m4.1 120c12.7-9.9 27-15.8 63.8-21.2l3.9 37.7-55.3 4.6c-4.2-7-9.4-12.2-12.4-21.1z"/>
		<path fill-rule="evenodd" class="s3" d="m701.5 212c41.3-2.9 116.4-13.5 122.7-3.9l4.2-28c0 0-5-7.7-19.7-7.8-33.7-0.2-116.2 7.8-108.6 7.8 0 0 1.4 31.9 1.4 31.9z"/>
		<path fill-rule="evenodd" class="s4" d="m72.2 134.4c0 0 8.7 217.9 12.7 223.4 3.9 5.6 100.1-159.1 152.2-55.4 80.4 96.8 330.9 198 465.8 59.8 0.2 0.2 8.8-208.8 8.8-208.8 0 0-639.5-19-639.5-19z"/>
		<path fill-rule="evenodd" class="s5" d="m72.2 134.4c0 0-1.6 216 18.2 235.9 19.8 20-50.1-210.7 351.8-58.7 121.4 45.9 248.8 5.5 253.2 0.2 5-6.1 16.3-162.9 16.3-162.9 0 0-639.5-14.5-639.5-14.5z"/>
		<path fill-rule="evenodd" class="s6" d="m257 306.4c-61.8 38.1-114 55.4-161.9 63.8 1.6 33.3 3.2 57.9 4.6 60.4 4.3 7.8 34 101.8 321.7 103.6 188.8 1.1 248.7-53.4 266.9-78.9-167.6-25.3-381.6-75.6-431.3-148.9z"/>
		<path fill-rule="evenodd" class="s7" d="m94.3 97.6c0 0 3.4 308.6 5.7 318.8 2 8.8-32.1 71.9 97 103.1 98.3 23.7 176-78.6 178-88.6 2.3-11.5 7.3-306.1 7.3-306.1 0 0-288-27.2-288-27.2z"/>
		<path fill-rule="evenodd" class="s8" d="m604.6 238.6c-6.2 15.5-6 34.9 2 43.6 3.6 3.9 34-13.4 54.6-22.1 42.5-20.7 131.2-2 166.3-43.8-3.5-9.4-0.7-30.8-4.4-39.4-2.6 16.8-13.9 21.1-50 28.5-36.8 7.6-109.9 15.6-123 19.5 0 0-45.5 13.7-45.5 13.7z"/>
		<path fill-rule="evenodd" class="s9" d="m606.6 240.6c-6.2 15.5-6 34.9 2 43.6 3.6 3.9 33.3-12.3 53.9-21.1 48.7-17.1 133.3-1.8 168.6-44.4 1.3-25 1.1-29.8-2.6-38.4-4.6 12.2-17.3 19.7-53.4 27.1-36.8 7.6-109.9 15.6-123 19.5 0 0-45.5 13.7-45.5 13.7z"/>
		<path fill-rule="evenodd" class="s10" d="m778.4 209.5l-0.3 0.3-0.4-0.1-0.4 0.1-0.3 0.3-0.2 0.6-0.2 0.6-0.4 0.3-0.3 0.3h-0.4l-0.3 0.2h-0.4l-0.3 0.4-0.4 0.1-0.4-0.4h-0.3l-0.4 0.2-0.3-0.1-0.5 0.1-0.3 0.4-0.3 0.3-0.4 0.4v0.8l-0.2 0.6-0.3 0.5-0.4 0.2h-0.3l-0.2 0.6-0.3 0.4-0.2 0.7-0.3 0.4h-0.4l-0.4 0.2-0.3 0.4-0.2 0.6-0.2 0.7v0.7l-0.2 0.7 0.1 0.7 0.2 0.7v0.7l-0.1 0.7 0.2 0.7-0.2 0.7-0.3 0.5 0.2 0.6 0.1 0.7v0.7l-0.1 0.7-0.3 0.4v0.7l-0.3 0.4-0.2 0.6-0.3 0.4-0.4 0.4-0.1 0.6-0.1 0.7-0.3 0.6v0.7l-0.2 0.7-0.3 0.3-0.4 0.1-0.4 0.2-0.2 0.7-0.3 0.4 0.3 0.3 0.4 0.2 0.3 0.6 0.4 0.1 0.2 0.6 0.3 0.5v0.8l0.1 0.7-0.1 0.6v0.7 0.7l0.1 0.6 0.3 0.5 0.2 0.6v0.7 0.7l0.4-0.1 0.3 0.4 0.3 0.6 0.2 0.6 0.4 0.2 0.3-0.2h0.4 0.4l0.3 0.4 0.3 0.3 0.4 0.1 0.4 0.1 0.3 0.3c8.2-1.3 14.7-2.7 19.9-4.3l0.1-0.6v-0.6l0.1-0.7 0.2-0.6v-0.6-0.7l0.1-0.6 0.4-0.2 0.2-0.5 0.2-0.6 0.2-0.5 0.3-0.6 0.3-0.4h0.4l0.3-0.1-0.3-0.2-0.3-0.2-0.4-0.4-0.3-0.2-0.1-0.7-0.2-0.5-0.3-0.5-0.3-0.4h-0.3-0.4l-0.2-0.5-0.4-0.2-0.4-0.2h-0.3l-0.3-0.4-0.4-0.1-0.3-0.4-0.3-0.5-0.4-0.2-0.4-0.1v-0.8-0.7l-0.4-0.4-0.2-0.7-0.2-0.6-0.3-0.5-0.1-0.7v-0.7-0.7l0.1-0.7v-0.7l0.1-0.6h-0.4-0.3l-0.3-0.4-0.3-0.5-0.2-0.5-0.3-0.4-0.3-0.3-0.4 0.1-0.3-0.3-0.4 0.1-0.3-0.4-0.2-0.5-0.3-0.5-0.4-0.3-0.1-0.6-0.1-0.6-0.3-0.4-0.1-0.7-0.1-0.6v-0.7-0.6l-0.1-0.6-0.2-0.6v-0.7l-0.3-0.3-0.2-0.5-0.3-0.4-0.2-0.4-0.3-0.4-0.3-0.4-0.3-0.3z"/>
		<path fill-rule="evenodd" class="s11" d="m710.6 212c38.4-2.9 108.1-13.5 113.8-3.9l2.9-28.6c0 0-3.6-7.1-17.2-7.2-31.3-0.2-107.8 7.8-100.8 7.8 0 0 1.3 31.9 1.3 31.9z"/>
		<path fill-rule="evenodd" class="s12" d="m786.5 205.6c19.5-4.2 51.8-28.4 15.8-33.2 47.3 2.1 22.1 25.6-15.8 33.2z"/>
		<path fill-rule="evenodd" class="s13" d="m73.7 200.5c0 0-7.9 0.3-10-1.8-1.7-1.7-0.1-15.9-3.7-19.9-4.9-5.4-49.4-11.8-57.1-23.8-4.3-6.7-3.3-30.8-0.1-32.9 5.1 4.6 5.9 6.3 9.3 9.3 15.4 13.2 61.5 14.8 61.5 20.4 0 0 0.1 48.7 0.1 48.7z"/>
		<path fill-rule="evenodd" class="s14" d="m55.1 108.4c-14.9 3.8-29.9 8.5-43.4 15.9 15.9-2.5 30.5-9.4 45-16.3l-1.3 0.3c0 0-0.3 0.1-0.3 0.1z"/>
		<path fill-rule="evenodd" class="s15" d="m724.1 135.3c-0.5 19-35.8 36.2-98.1 47.9-62.4 11.6-146.6 16.7-234.3 14.1-87.6-2.6-171.5-12.7-233.1-27.9-61.6-15.3-95.9-34.6-95.4-53.6 0.5-19.1 35.9-36.3 98.2-47.9 62.3-11.6 146.6-16.7 234.2-14.1 87.7 2.6 171.5 12.6 233.1 27.9 61.6 15.3 96 34.5 95.4 53.6z"/>
		<path fill-rule="evenodd" class="s16" d="m724.1 135.3c-0.5 19-35.8 36.2-98.1 47.9-62.4 11.6-146.6 16.7-234.3 14.1-87.6-2.6-171.5-12.7-233.1-27.9-61.6-15.3-95.9-34.6-95.4-53.6 0.5-19.1 35.9-36.3 98.2-47.9 62.3-11.6 146.6-16.7 234.2-14.1 87.7 2.6 171.5 12.6 233.1 27.9 61.6 15.3 96 34.5 95.4 53.6z"/>
		<path fill-rule="evenodd" class="s17" d="m724.1 135.3c-0.5 19-35.8 36.2-98.1 47.9-62.4 11.6-146.6 16.7-234.3 14.1-87.6-2.6-171.5-12.7-233.1-27.9-61.6-15.3-95.9-34.6-95.4-53.6 0.5-19.1 35.9-36.3 98.2-47.9 62.3-11.6 146.6-16.7 234.2-14.1 87.7 2.6 171.5 12.6 233.1 27.9 61.6 15.3 96 34.5 95.4 53.6z"/>
		<path fill-rule="evenodd" class="s18" d="m724.1 135.3c-0.5 19-35.8 36.2-98.1 47.9-62.4 11.6-146.6 16.7-234.3 14.1-87.6-2.6-171.5-12.7-233.1-27.9-61.6-15.3-95.9-34.6-95.4-53.6 0.5-19.1 35.9-36.3 98.2-47.9 62.3-11.6 146.6-16.7 234.2-14.1 87.7 2.6 171.5 12.6 233.1 27.9 61.6 15.3 96 34.5 95.4 53.6z"/>
		<path fill-rule="evenodd" class="s19" d="m318.7 560.6c124.9-21.8 252.5-35.4 370.1-80.5 0 0-47.1 57.1-127.2 77.5-80.3 20.4-242.9 3-242.9 3z"/>
		<path fill-rule="evenodd" class="s20" d="m103.1 483.1c29.7 34.6 107.4 86.6 313.1 88 189.7 1.3 253.4-58.6 273.6-88z"/>
		<g>
			<g>
				<path fill-rule="evenodd" class="s21" d="m725.3 128.1c-0.5 19.1-35.9 36.3-98.2 47.9-62.3 11.6-146.6 16.7-234.2 14.1-87.7-2.6-171.5-12.6-233.1-27.9-61.6-15.3-96-34.5-95.4-53.6 0.5-19 35.8-36.2 98.1-47.8 62.4-11.7 146.6-16.7 234.3-14.2 87.6 2.6 171.5 12.7 233.1 27.9 61.6 15.3 95.9 34.6 95.4 53.6z"/>
				<path fill-rule="evenodd" class="s22" d="m712.2 124.3c-0.5 16.5-34 31.5-93.2 41.6-59.2 10.1-139.1 14.6-222.3 12.3-83.2-2.2-162.8-11-221.2-24.3-58.5-13.3-91.1-30-90.6-46.6 0.5-16.5 34-31.5 93.2-41.6 59.1-10.1 139.1-14.6 222.3-12.3 83.2 2.2 162.7 11 221.2 24.3 58.5 13.3 91.1 30 90.6 46.6z"/>
				<path fill-rule="evenodd" class="s23" d="m701.6 137.2c-27 28-145 42.8-309.9 38.9-164.9-3.9-270.9-28.6-298.6-54.5 82.7-40.7 212.2-44.7 300.6-44.7 87.8 0 210.5 20.4 307.9 60.3z"/>
				<path fill-rule="evenodd" class="s24" d="m265.8 167c9.1-29-36.9-55.7-56.9-66.5 29.2-22.9 318.3-20 310.5-16.2-3.7 1.7-39.4 36.6-39.4 36.6-58.4-11.6-110-25.4-210.1-23.1 12.9 23.1 37.8 42.3 31.2 71.9 0 0-35.3-2.7-35.3-2.7z"/>
				<g>
					<path fill-rule="evenodd" class="s25" d="m246.3 110.5c1.9 5.2 9 10.7 14.2 8.6 9.9-4 35.2-6.8 51.5-11.6 4.8-1.4 8.8-8.3 10.4-13 0.1-0.2 0-0.6 0-0.6-2-0.3 26.7-67.5 74.9-74.2 48.7-6.7 75.2 45.2 87 70.3 6.1 12.9 13.1 9.2 13.1 9.2 13.5 1.7 31.6 3.4 47.2 6.3 3.2-8.4 1.6-4.6 2.3-7.7l-9.8-6.5-36.4-5.9c-19.9-45.6-42.4-78.9-98.9-81.3-56.5-2.4-83.6 52.7-110.6 91.1-2.9 1.9-42 3.4-44.2 8.4-0.6 1.3-1.1 5.7-0.7 6.9z"/>
					<path fill-rule="evenodd" class="s26" d="m248.3 106.5c1.9 5.2 9 10.7 14.2 8.6 9.9-4 35.2-6.8 51.5-11.6 4.8-1.4 8.8-8.3 10.4-13 0.1-0.2 0-0.6 0-0.6-2-0.3 26.7-67.5 74.9-74.2 48.7-6.7 75.2 45.2 87 70.3 6.1 12.9 13.1 9.2 13.1 9.2 13.5 1.7 31.6 3.4 47.2 6.3 3.2-8.4 1.6-4.6 2.3-7.7l-9.8-6.5-36.4-5.9c-19.9-45.6-42.4-78.9-98.9-81.3-56.5-2.4-83.6 52.7-110.6 91.1-2.9 1.9-42 3.4-44.2 8.4-0.6 1.3-1.1 5.7-0.7 6.9z"/>
					<path fill-rule="evenodd" class="s27" d="m249.9 106.1l8.1 6.6 58.8-13.3c17.9-60.2 57.7-89 94.3-88.4 36.9 0.7 69.4 29.8 93.1 78.9l21.8 5.1"/>
					<path fill-rule="evenodd" class="s28" d="m498.9 93.7c3-2.5-20.7-38.7-27.6-46-18-19.3-28.4-22.6-29.6-22.4 5.7 3.6 18.2 16.6 18.2 16.6 19.5 23.5 27.2 46.9 29.9 49.2 6.4 5.4 3.4-1.9 9.1 2.6z"/>
					<path fill-rule="evenodd" class="s29" d="m501.8 92.8c0.8-1.9-22.6-38.2-30.2-45.5-19.1-18.2-24.4-20.2-25.6-19.9 5.7 3.5 16.3 12.3 16.3 12.3 19.6 23.5 26.8 51.3 29.9 53.1 6.2 3.3 8.7 2.2 9.6 0z"/>
				</g>
				<path fill-rule="evenodd" class="s30" d="m299.2 139.6c-1.3 5.3-10.1 9.5-24.6 11.7-14.4 2.2-33.3 2.3-52.5 0.2-19.2-2.1-37.1-6.3-49.8-11.5-12.6-5.2-19-11.1-17.8-16.3 1.3-5.3 10.1-9.5 24.6-11.7 14.5-2.2 33.4-2.3 52.6-0.2 19.1 2.1 37 6.3 49.7 11.5 12.7 5.2 19.1 11.1 17.8 16.3z"/>
				<path fill-rule="evenodd" class="s31" d="m261.5 148.6c-1 4.1-8.4 7.3-20.5 9-12.1 1.8-27.9 1.8-44 0.2-16-1.7-31-4.9-41.6-8.9-10.6-4.1-15.9-8.7-14.8-12.7 1-4.1 8.4-7.4 20.5-9.1 12.1-1.7 27.9-1.8 43.9-0.1 16.1 1.6 31.1 4.8 41.6 8.9 10.6 4 16 8.6 14.9 12.7z"/>
				<path fill-rule="evenodd" class="s32" d="m535.8 111.6c1.2 22.4 8.7 43.3 20.9 61.1 56.5-4.4 99.6-12.2 125-23.1-46.3-16.8-96.8-29.5-145.9-38z"/>
				<path fill-rule="evenodd" class="s33" d="m257.2 119.2c18.8-5.1 39.1-8.3 57.3-12.4 12.1-2.3 21.6 30 88.7 32.8 67.2 2.7 76.4-43 92.4-44 17.6 2.6 30.3 4.6 50.2 3.2l-3.9 5.1-38.2 2.9c-19.9 18.3-39.5 38-95.9 39-56.5 1-79.6-12.7-106.6-28-2.9-0.8-38.6 6.4-41 4.1-2.2-2.1-3.4-2.2-3-2.7z"/>
			</g>
			<path fill-rule="evenodd" class="s14" d="m65.7 120.2c4.9 9.5 20.6 18.2 47.8 24.8 102.7 24.7 162.1 37.7 215.5 42.6-130-4-246.1-24.1-263.9-67.4q0.3 0 0.6 0zm565 48.4c7.1 0.6 0.5-0.2 7.6 0.3-169.4 25.2-186.2 21.9-7.6-0.3z"/>
		</g>
		<path fill-rule="evenodd" class="s34" d="m9 129.2c-2-3-3.5-5.5 0.6-8l-5.4-1.2c-0.6 0.4-1.6 2-1.8 2.5z"/>
		<path fill-rule="evenodd" class="s35" d="m3.2 125.4c3.8 3.7 7.1 8 11.8 10.6 17.2 8.2 54.3 9.2 57.6 20.3 2.1 7.3 6.4 27.5 1 41.5-1.2 3.1-6.4-3.5-8.2-0.2-1.7-5.8-0.1-13.1-3.1-18.8-4.6-6-13.4-6-20-8.7-12.7-4.2-27.4-6.2-37.4-15.6-4.1-8.7-3.3-19.3-1.8-28.6 0 0 0.1-0.5 0.1-0.5zm10 18.5c-3 3.5-3 10-2.1 11.9 10.2 10.7 30.7 10 45.3 16.8 3.1 0.6 6.8 6.4 9.3 2 1.2-5.8 0.9-12.5-1.2-18-12.1-3-46.4-20.2-51.3-12.7z"/>
		<path fill-rule="evenodd" class="s36" d="m75.4 197.9c-0.1 2.3-3 2.9-3.2 0.7-0.3-4.5 1-20.2 1-32.8 0-2.2 3.2-2.9 3.1-0.7-0.5 10.7-0.6 26.1-0.9 32.8z"/>
		<path fill-rule="evenodd" class="s37" d="m65.6 150.2l8.8 13.3c0 0-0.2-12.4-1.5-12.2-1.4 0.2-7.9-3-7.3-1.1z"/>
		<path fill-rule="evenodd" class="s38" d="m151.1 424.5c1.8-32.2 45-60.9 120-79.9 74.9-18.9 175.6-26.4 279.8-20.9 104.2 5.6 203.4 23.7 275.8 50.4 72.4 26.7 112 59.8 110.2 92.1-1.8 32.2-44.9 61-119.9 79.9-75 18.9-175.6 26.4-279.8 20.9-104.3-5.5-203.5-23.7-275.9-50.4-72.4-26.7-112-59.8-110.2-92.1z"/>
	</g>
</svg>