<svg version="1.2" xmlns="http://www.w3.org/2000/svg" viewBox="0 0 745 1053" width="200" height="283">
	<title>percolator-34180-svg</title>
	<defs>
		<radialGradient id="g1" cx="0" cy="0" r="1" gradientUnits="userSpaceOnUse" gradientTransform="matrix(129.313,0,0,129.313,371.654,345.183)">
			<stop offset="0" stop-color="#b3ac8a" stop-opacity=".62"/>
			<stop offset="1" stop-color="#8e8e8e" stop-opacity="0"/>
		</radialGradient>
		<linearGradient id="g2" x2="1" gradientUnits="userSpaceOnUse" gradientTransform="matrix(-58.55,87.52,-86.492,-57.862,367.53,340.48)">
			<stop offset="0" stop-color="#5a6671" stop-opacity=".41"/>
			<stop offset="1" stop-color="#a3c1c2" stop-opacity="0"/>
		</linearGradient>
		<filter x="-50%" y="-50%" width="200%" height="200%" id="f1"> <feGaussianBlur stdDeviation="18.3"/> </filter>
		<radialGradient id="g3" cx="0" cy="0" r="1" gradientUnits="userSpaceOnUse" gradientTransform="matrix(295.942,-10.785,10.785,295.942,441.009,716.463)">
			<stop offset="0" stop-color="#594c36" stop-opacity="1"/>
			<stop offset="1" stop-color="#070000" stop-opacity="0"/>
		</radialGradient>
		<filter x="-50%" y="-50%" width="200%" height="200%" id="f2"> <feGaussianBlur stdDeviation="3.1"/> </filter>
		<filter x="-50%" y="-50%" width="200%" height="200%" id="f3"> <feGaussianBlur stdDeviation="2.9"/> </filter>
		<radialGradient id="g4" cx="0" cy="0" r="1" gradientUnits="userSpaceOnUse" gradientTransform="matrix(81.048,206.524,-206.524,81.048,163.837,561.785)">
			<stop offset="0" stop-color="#d1f3ff" stop-opacity="1"/>
			<stop offset="1" stop-color="#b1b1b1" stop-opacity="0"/>
		</radialGradient>
		<radialGradient id="g5" cx="0" cy="0" r="1" gradientUnits="userSpaceOnUse" gradientTransform="matrix(21.269,-61.909,61.909,21.269,254.547,566.629)">
			<stop offset="0" stop-color="#d1f3ff" stop-opacity="1"/>
			<stop offset="1" stop-color="#b1b1b1" stop-opacity="0"/>
		</radialGradient>
		<filter x="-50%" y="-50%" width="200%" height="200%" id="f4"> <feGaussianBlur stdDeviation="4.7"/> </filter>
		<radialGradient id="g6" cx="0" cy="0" r="1" gradientUnits="userSpaceOnUse" gradientTransform="matrix(37.128,9.271,-9.271,37.128,155.828,690.764)">
			<stop offset="0" stop-color="#f3ffff" stop-opacity="1"/>
			<stop offset="1" stop-color="#b1b1b1" stop-opacity="0"/>
		</radialGradient>
		<linearGradient id="g7" x2="1" gradientUnits="userSpaceOnUse" gradientTransform="matrix(-21.52,-146.2,90.086,-13.26,221.32,773.74)">
			<stop offset="0" stop-color="#322929" stop-opacity=".11"/>
			<stop offset=".5" stop-color="#000000" stop-opacity="1"/>
			<stop offset="1" stop-color="#ffffff" stop-opacity="0"/>
		</linearGradient>
		<filter x="-50%" y="-50%" width="200%" height="200%" id="f5"> <feGaussianBlur stdDeviation=".7"/> </filter>
		<linearGradient id="g8" x2="1" gradientUnits="userSpaceOnUse" gradientTransform="matrix(38.593,-103.406,93.094,34.745,262.157,521.334)">
			<stop offset="0" stop-color="#cfe9ff" stop-opacity=".74"/>
			<stop offset="1" stop-color="#cccccc" stop-opacity="0"/>
		</linearGradient>
		<linearGradient id="g9" x2="1" gradientUnits="userSpaceOnUse" gradientTransform="matrix(39.31,-4.22,12.751,118.782,145.63,367.37)">
			<stop offset="0" stop-color="#d3e3ef" stop-opacity="1"/>
			<stop offset="1" stop-color="#c1cfe2" stop-opacity="0"/>
		</linearGradient>
		<radialGradient id="g10" cx="0" cy="0" r="1" gradientUnits="userSpaceOnUse" gradientTransform="matrix(-46.835,45.464,-45.464,-46.835,142.309,542.195)">
			<stop offset="0" stop-color="#b8cbdb" stop-opacity=".81"/>
			<stop offset="1" stop-color="#8f6e70" stop-opacity="0"/>
		</radialGradient>
		<linearGradient id="g11" x2="1" gradientUnits="userSpaceOnUse" gradientTransform="matrix(53.979,51.47,-45.824,48.058,96.701,258.09)">
			<stop offset="0" stop-color="#b2b9ca" stop-opacity="1"/>
			<stop offset="1" stop-color="#999faf" stop-opacity="0"/>
		</linearGradient>
		<linearGradient id="g12" x2="1" gradientUnits="userSpaceOnUse" gradientTransform="matrix(328.29,3.7,-1.168,103.666,141.8,489.79)">
			<stop offset="0" stop-color="#95a7b4" stop-opacity=".71"/>
			<stop offset=".135" stop-color="#ffffff" stop-opacity="1"/>
			<stop offset=".224" stop-color="#ececec" stop-opacity="1"/>
			<stop offset=".404" stop-color="#b2afb3" stop-opacity=".71"/>
			<stop offset=".515" stop-color="#97a7be" stop-opacity=".26"/>
			<stop offset=".626" stop-color="#9199a4" stop-opacity=".25"/>
			<stop offset=".682" stop-color="#8e9297" stop-opacity=".24"/>
			<stop offset=".71" stop-color="#8c8e91" stop-opacity=".24"/>
			<stop offset=".738" stop-color="#8b8b8b" stop-opacity=".24"/>
			<stop offset=".875" stop-color="#000000" stop-opacity=".6"/>
			<stop offset=".938" stop-color="#0f0f19" stop-opacity=".27"/>
			<stop offset=".969" stop-color="#171726" stop-opacity=".13"/>
			<stop offset=".984" stop-color="#1b1b2c" stop-opacity=".07"/>
			<stop offset="1" stop-color="#1f1f33" stop-opacity="0"/>
		</linearGradient>
		<radialGradient id="g13" cx="0" cy="0" r="1" gradientUnits="userSpaceOnUse" gradientTransform="matrix(149.937,-4.559,4.559,149.937,347.441,446.427)">
			<stop offset="0" stop-color="#1f1f1f" stop-opacity="1"/>
			<stop offset="1" stop-color="#443232" stop-opacity="0"/>
		</radialGradient>
		<linearGradient id="g14" x2="1" gradientUnits="userSpaceOnUse" gradientTransform="matrix(28.48,0,0,9.146,167.71,0)">
			<stop offset="0" stop-color="#687071" stop-opacity="1"/>
			<stop offset="1" stop-color="#747474" stop-opacity="0"/>
		</linearGradient>
		<linearGradient id="g15" x2="1" gradientUnits="userSpaceOnUse" gradientTransform="matrix(28.48,0,0,9.146,167.71,0)">
			<stop offset="0" stop-color="#373337" stop-opacity="0"/>
			<stop offset=".5" stop-color="#7d888e" stop-opacity="1"/>
			<stop offset="1" stop-color="#747474" stop-opacity="0"/>
		</linearGradient>
		<linearGradient id="g16" x2="1" gradientUnits="userSpaceOnUse" gradientTransform="matrix(-232.46,0,0,-74.651,632.22,0)">
			<stop offset="0" stop-color="#373337" stop-opacity="0"/>
			<stop offset=".5" stop-color="#7d888e" stop-opacity="1"/>
			<stop offset="1" stop-color="#747474" stop-opacity="0"/>
		</linearGradient>
		<linearGradient id="g17" x2="1" gradientUnits="userSpaceOnUse" gradientTransform="matrix(65.5,0,0,21.034,167.71,0)">
			<stop offset="0" stop-color="#ffffff" stop-opacity="0"/>
			<stop offset=".5" stop-color="#ffffff" stop-opacity="1"/>
			<stop offset="1" stop-color="#ffffff" stop-opacity="0"/>
		</linearGradient>
		<linearGradient id="g18" x2="1" gradientUnits="userSpaceOnUse" gradientTransform="matrix(72.23,0,0,23.196,314.27,0)">
			<stop offset="0" stop-color="#322929" stop-opacity=".11"/>
			<stop offset=".5" stop-color="#000000" stop-opacity="1"/>
			<stop offset="1" stop-color="#ffffff" stop-opacity="0"/>
		</linearGradient>
		<filter x="-50%" y="-50%" width="200%" height="200%" id="f6"> <feGaussianBlur stdDeviation="2.5"/> </filter>
		<linearGradient id="g19" x2="1" gradientUnits="userSpaceOnUse" gradientTransform="matrix(118.38,21.27,-5.406,30.086,214.403,533.517)">
			<stop offset="0" stop-color="#e0e7f0" stop-opacity="1"/>
			<stop offset="1" stop-color="#c1cfe2" stop-opacity="0"/>
		</linearGradient>
		<filter x="-50%" y="-50%" width="200%" height="200%" id="f7"> <feGaussianBlur stdDeviation=".5"/> </filter>
		<filter x="-50%" y="-50%" width="200%" height="200%" id="f8"> <feGaussianBlur stdDeviation="1.7"/> </filter>
		<filter x="-50%" y="-50%" width="200%" height="200%" id="f9"> <feGaussianBlur stdDeviation="1.3"/> </filter>
		<filter x="-50%" y="-50%" width="200%" height="200%" id="f10"> <feGaussianBlur stdDeviation="1.1"/> </filter>
		<filter x="-50%" y="-50%" width="200%" height="200%" id="f11"> <feGaussianBlur stdDeviation="2.6"/> </filter>
		<radialGradient id="g20" cx="0" cy="0" r="1" gradientUnits="userSpaceOnUse" gradientTransform="matrix(23.062,68.471,-68.471,23.062,213.929,220.217)">
			<stop offset="0" stop-color="#edf7ff" stop-opacity="1"/>
			<stop offset="1" stop-color="#b1b1b1" stop-opacity="0"/>
		</radialGradient>
		<filter x="-50%" y="-50%" width="200%" height="200%" id="f12"> <feGaussianBlur stdDeviation="1.8"/> </filter>
		<linearGradient id="g21" x2="1" gradientUnits="userSpaceOnUse" gradientTransform="matrix(-58.155,0,0,-132.659,303.578,5468.4)">
			<stop offset="0" stop-color="#b6dbe8" stop-opacity="1"/>
			<stop offset="1" stop-color="#b3ae99" stop-opacity="0"/>
		</linearGradient>
		<filter x="-50%" y="-50%" width="200%" height="200%" id="f13"> <feGaussianBlur stdDeviation="5"/> </filter>
		<filter x="-50%" y="-50%" width="200%" height="200%" id="f14"> <feGaussianBlur stdDeviation="3"/> </filter>
		<linearGradient id="g22" x2="1" gradientUnits="userSpaceOnUse" gradientTransform="matrix(-61.631,28.105,-27.02,-59.251,310.354,189.55)">
			<stop offset="0" stop-color="#1d1d1d" stop-opacity="1"/>
			<stop offset="1" stop-color="#1d1d1d" stop-opacity="0"/>
		</linearGradient>
		<linearGradient id="g23" x2="1" gradientUnits="userSpaceOnUse" gradientTransform="matrix(33.12,38.86,-32.721,27.888,481.91,224.74)">
			<stop offset="0" stop-color="#07000b" stop-opacity="1"/>
			<stop offset="1" stop-color="#07000b" stop-opacity="0"/>
		</linearGradient>
		<filter x="-50%" y="-50%" width="200%" height="200%" id="f15"> <feGaussianBlur stdDeviation="2.3"/> </filter>
		<filter x="-50%" y="-50%" width="200%" height="200%" id="f16"> <feGaussianBlur stdDeviation="2.4"/> </filter>
		<filter x="-50%" y="-50%" width="200%" height="200%" id="f17"> <feGaussianBlur stdDeviation="6.5"/> </filter>
		<radialGradient id="g24" cx="0" cy="0" r="1" gradientUnits="userSpaceOnUse" gradientTransform="matrix(181.868,-140.756,140.756,181.868,264.678,830.257)">
			<stop offset="0" stop-color="#4c1f1f" stop-opacity="1"/>
			<stop offset="1" stop-color="#1d1d1d" stop-opacity="0"/>
		</radialGradient>
		<filter x="-50%" y="-50%" width="200%" height="200%" id="f18"> <feGaussianBlur stdDeviation=".6"/> </filter>
		<filter x="-50%" y="-50%" width="200%" height="200%" id="f19"> <feGaussianBlur stdDeviation=".3"/> </filter>
		<linearGradient id="g25" x2="1" gradientUnits="userSpaceOnUse" gradientTransform="matrix(.5,0,0,.683,3093.2,0)">
			<stop offset="0" stop-color="#ffffff" stop-opacity="1"/>
			<stop offset="1" stop-color="#ffbe1e" stop-opacity="0"/>
		</linearGradient>
		<linearGradient id="g26" x2="1" gradientUnits="userSpaceOnUse" gradientTransform="matrix(24.736,-0.655,.746,28.19,196.294,580.354)">
			<stop offset="0" stop-color="#000000" stop-opacity="1"/>
			<stop offset="1" stop-color="#000000" stop-opacity="0"/>
		</linearGradient>
		<filter x="-50%" y="-50%" width="200%" height="200%" id="f20"> <feGaussianBlur stdDeviation="2.7"/> </filter>
		<linearGradient id="g27" x2="1" gradientUnits="userSpaceOnUse" gradientTransform="matrix(168.69,28.59,-11.278,66.546,122.71,464.9)">
			<stop offset="0" stop-color="#322929" stop-opacity="0"/>
			<stop offset=".5" stop-color="#ffffff" stop-opacity="1"/>
			<stop offset="1" stop-color="#ffffff" stop-opacity="0"/>
		</linearGradient>
		<linearGradient id="g28" x2="1" gradientUnits="userSpaceOnUse" gradientTransform="matrix(-59.33,23.38,-49.314,-125.141,244.27,348.35)">
			<stop offset="0" stop-color="#ffffff" stop-opacity="1"/>
			<stop offset="1" stop-color="#ffffff" stop-opacity="0"/>
		</linearGradient>
		<linearGradient id="g29" x2="1" gradientUnits="userSpaceOnUse" gradientTransform="matrix(39.31,4.38,-9.88,88.676,145.63,302.6)">
			<stop offset="0" stop-color="#6a6a6a" stop-opacity=".84"/>
			<stop offset="1" stop-color="#ffffff" stop-opacity="0"/>
		</linearGradient>
		<filter x="-50%" y="-50%" width="200%" height="200%" id="f21"> <feGaussianBlur stdDeviation="1.5"/> </filter>
	</defs>
	<style>
		.s0 { fill: #837f7f } 
		.s1 { fill: #a1a1a1 } 
		.s2 { fill: url(#g1) } 
		.s3 { fill: url(#g2) } 
		.s4 { opacity: .8;filter: url(#f1);fill: url(#g3) } 
		.s5 { filter: url(#f2);fill: #1d0f0f } 
		.s6 { fill: #625d5d } 
		.s7 { fill: #b5b5b5 } 
		.s8 { fill: #cdcfd1 } 
		.s9 { filter: url(#f3);fill: url(#g4) } 
		.s10 { fill: url(#g5) } 
		.s11 { filter: url(#f4);fill: url(#g6) } 
		.s12 { opacity: .3;fill: #ffffff } 
		.s13 { opacity: .2;fill: url(#g7) } 
		.s14 { fill: #707070 } 
		.s15 { filter: url(#f5);fill: url(#g8) } 
		.s16 { opacity: .7;fill: #d7dee7 } 
		.s17 { fill: url(#g9) } 
		.s18 { fill: #b1b1b1 } 
		.s19 { fill: url(#g10) } 
		.s20 { fill: url(#g11) } 
		.s21 { fill: #757584 } 
		.s22 { fill: url(#g12) } 
		.s23 { fill: url(#g13) } 
		.s24 { fill: url(#g14) } 
		.s25 { fill: url(#g15) } 
		.s26 { fill: url(#g16) } 
		.s27 { fill: url(#g17) } 
		.s28 { opacity: .3;fill: url(#g18) } 
		.s29 { filter: url(#f6);fill: url(#g19) } 
		.s30 { fill: #918c89 } 
		.s31 { fill: #868686 } 
		.s32 { fill: #8e8e8e } 
		.s33 { opacity: .7;fill: #544040 } 
		.s34 { opacity: .4;fill: #241c1c } 
		.s35 { fill: #a5a4a1 } 
		.s36 { fill: #88877f } 
		.s37 { filter: url(#f7);fill: #ffffff } 
		.s38 { opacity: .4;filter: url(#f8);fill: #ffffff } 
		.s39 { fill: #7e7b7b } 
		.s40 { fill: #a5a5a5 } 
		.s41 { filter: url(#f9);fill: none;stroke: #000000;stroke-width: 4.1 } 
		.s42 { filter: url(#f9);fill: #fffaea } 
		.s43 { fill: #aeaca2 } 
		.s44 { fill: #1d1d1d } 
		.s45 { filter: url(#f10);fill: none;stroke: #ffffff;stroke-linecap: round;stroke-width: 5.3 } 
		.s46 { opacity: .7;filter: url(#f11);fill: url(#g20) } 
		.s47 { opacity: .7;filter: url(#f12);fill: url(#g21) } 
		.s48 { filter: url(#f13);fill: none;stroke: #ffffff;stroke-width: 2.2 } 
		.s49 { opacity: .7;filter: url(#f14);fill: url(#g22) } 
		.s50 { filter: url(#f11);fill: none;stroke: #ffffff;stroke-width: 1.8 } 
		.s51 { opacity: .7;fill: url(#g23) } 
		.s52 { filter: url(#f15);fill: none;stroke: #dbe0e5;stroke-width: 2.4 } 
		.s53 { filter: url(#f16);fill: none;stroke: #000000;stroke-width: 3.4 } 
		.s54 { filter: url(#f17);fill: url(#g24) } 
		.s55 { filter: url(#f14);fill: none;stroke: #797979;stroke-width: 6.9 } 
		.s56 { filter: url(#f6);fill: none;stroke: #000000;stroke-linecap: round;stroke-linejoin: round;stroke-width: 1.6 } 
		.s57 { opacity: .5;filter: url(#f5);fill: #000000 } 
		.s58 { opacity: .4;filter: url(#f18);fill: #000000 } 
		.s59 { fill: #b78e2a } 
		.s60 { opacity: .5;fill: #c8b79b } 
		.s61 { fill: #656528 } 
		.s62 { fill: #cd9c47 } 
		.s63 { opacity: .8;fill: #875323 } 
		.s64 { opacity: .4;fill: #875323 } 
		.s65 { opacity: .4;fill: #c89a19 } 
		.s66 { filter: url(#f19);fill: url(#g25) } 
		.s67 { fill: url(#g26) } 
		.s68 { fill: #bbbc34 } 
		.s69 { filter: url(#f20);fill: none;stroke: #b9e6ff;stroke-linecap: round;stroke-linejoin: round;stroke-width: 2.8 } 
		.s70 { opacity: .2;filter: url(#f8);fill: #000000 } 
		.s71 { fill: none;stroke: #7f7f7f;stroke-width: 3.3 } 
		.s72 { fill: #bcbcbc } 
		.s73 { opacity: .9;fill: url(#g27) } 
		.s74 { fill: url(#g28) } 
		.s75 { fill: url(#g29) } 
		.s76 { filter: url(#f21);fill: none;stroke: #000000;stroke-width: 2 } 
	</style>
	<path fill-rule="evenodd" class="s0" d="m73.6 210.7l64.1-16.2 10.4-13.6 144.4-22-17.5-71.9 40.8-11 41.5 9.7-14.3 78.3 57 3.3 51.8 15.5 13-8.4 94.5-3.2v46.6l-8.4 27.2-55.7 18.8-31.7 182.5-11.2 26.7-20.3 18.1-1.4 25.7-120 21.5-137.3-29.7-3.9-9.8-2.5-51.4-6.3-18.5-13.2-40.2-25.2-31.7-48.6-90.6-33-15.6-3.3-11.6 18.2-18.2 14.9-5.8c0 0 3.2-4.5 3.2-4.5z"/>
	<path fill-rule="evenodd" class="s1" d="m364.5 468.9c0 0 28.4-1.1 55.7-5.8 27.6-4.9 40.9-14.7 40.9-14.7l32.5-218.7-121.2 25.9c0 0-7.9 213.3-7.9 213.3z"/>
	<path fill-rule="evenodd" class="s2" d="m364.5 468.9c0 0 28.4-1.1 55.7-5.8 27.6-4.9 40.9-14.7 40.9-14.7l32.5-218.7-121.2 25.9c0 0-7.9 213.3-7.9 213.3z"/>
	<path fill-rule="evenodd" class="s3" d="m225.1 463.3c0 0 38.6 13.1 64.3 14.2 25.8 1.2 74.1-9.1 74.1-9.1l4-210.5c0 0-151.6-12.7-155.5-7.2-3.5 4.9 13.1 212.6 13.1 212.6z"/>
	<path fill-rule="evenodd" class="s4" d="m741 718.6c0 40.4-134.3 86.8-300.1 103.5-165.7 16.8-300-2.4-300-42.8 0-40.5 134.3-86.8 300-103.6 165.8-16.7 300.1 2.5 300.1 42.9z"/>
	<path fill-rule="evenodd" class="s5" d="m501.5 730.8c-6.4 30.2-47.6 56.6-108.1 69.2-60.5 12.6-131 9.4-185.1-8.3-54-17.7-83.2-47.2-76.7-77.5"/>
	<path fill-rule="evenodd" class="s6" d="m314.9 600.6c-88.8 0-155.9-46-155.9-81.4 0-13.7 14.3-5.5 14.3-25.9 0 0 264.7-7.5 280.6 9.5 12.2 13 17.6 21.5 18.9 37 2 22.7-82.3 55.9-157.9 60.8z"/>
	<path fill-rule="evenodd" class="s7" d="m170.7 530.3c4.6 6.2 8.4 23.4 8.4 23.4 1.7-0.2 25.5-3.6 53.3 0.6 17.7 2.8 55 22 55 22l-5.4 151-2.5 67.4c-2.8-0.5-52.6-4.3-79.9-13.7-27.6-9.5-45.2-23-45.2-23v-0.5c-1.2-1.1-11.8-11.3-17.2-27.6-5.7-17.3-6-17.9-6-17.9l27.5-194.1c0 0 7.5 6.1 12 12.4zm108.9 264.4q0 0-0.1 0v0.1c0 0 51 3.1 82.5-0.7 39.4-4.7 60.4-8.2 60.4-8.2l-3.2-49.5-10.7-163.7q0 0 0.2-0.2v-0.1c0 0-36.3-6.2-62-6.2-25.7 0-59.1 9.7-59.1 9.7l-5.6 151.4zm-125-37.1l19.1-158.9-19.3 158.8q0.2 0.1 0.2 0.1zm346.4-23.9c0 0-7.7 9-31.4 26.2-20.2 14.7-47.1 26.4-47.1 26.4l-3.3-49.9-10.5-163.9c1.3-1.9 12.6-17.3 36.6-27.2 14.7-6 26.9-6.4 26.9-6.4 0 0 28.8 194.8 28.8 194.8z"/>
	<path fill-rule="evenodd" class="s8" d="m179 554.1c0 0 24-3.9 52.8 0.6 17.7 2.7 55 22 55 22l-7 218.3c0 0-52.2-4.1-80-13.7-27.6-9.5-43.9-23.3-43.9-23.3 0 0 23.1-203.9 23.1-203.9z"/>
	<path fill-rule="evenodd" class="s9" d="m179 554.1c0 0 23.9-3.9 52.7 0.6 17.7 2.7 55 22 55 22l-7 218.3c0 0-52.2-4.1-79.9-13.7-27.6-9.5-44-23.4-44-23.4 0 0 23.2-203.8 23.2-203.8z"/>
	<path fill-rule="evenodd" class="s10" d="m179 554.1c0 0 24-3.9 52.8 0.6 17.7 2.7 55 22 55 22l-7 218.3c0 0-52.2-4.1-80-13.7-27.6-9.5-43.9-23.3-43.9-23.3 0 0 23.1-203.9 23.1-203.9z"/>
	<path fill-rule="evenodd" class="s11" d="m179 554.1c0 0 23.9-3.9 52.7 0.6 17.7 2.7 55 22 55 22l-7 218.3c0 0-52.2-4.1-79.9-13.7-27.6-9.5-44-23.4-44-23.4 0 0 23.2-203.8 23.2-203.8z"/>
	<path fill-rule="evenodd" class="s12" d="m179 554.1c0 0 24-3.9 52.8 0.6 17.7 2.7 55 22 55 22l-7 218.3c0 0-52.2-4.1-80-13.7-27.6-9.5-43.9-23.3-43.9-23.3 0 0 23.1-203.9 23.1-203.9z"/>
	<path fill-rule="evenodd" class="s13" d="m179 554.1c0 0 24-3.9 52.8 0.6 17.7 2.7 55 22 55 22l-7 218.3c0 0-52.2-4.1-80-13.7-27.6-9.5-43.9-23.3-43.9-23.3 0 0 23.1-203.9 23.1-203.9z"/>
	<path fill-rule="evenodd" class="s14" d="m225.1 463.3c0 0 38.6 13.1 64.3 14.2 25.8 1.2 74.1-9.1 74.1-9.1l4-210.5c0 0-151.6-12.7-155.5-7.2-3.5 4.9 13.1 212.6 13.1 212.6z"/>
	<path fill-rule="evenodd" class="s15" d="m225 463.3c0 0 38.7 13.1 64.4 14.2 25.7 1.1 74-9.1 74-9.1l4.1-210.5c0 0-151.7-12.7-155.6-7.2-3.5 4.9 13.1 212.6 13.1 212.6z"/>
	<path fill-rule="evenodd" class="s16" d="m145.6 385.7c0 0 7 30.7 13.7 47 5.4 12.8 10.9 15.3 10.9 15.3l54.1 15.7-14.4-214.9-58.6-15.8c0 0-5.7 152.7-5.7 152.7z"/>
	<path fill-rule="evenodd" class="s17" d="m145.6 385.7c0 0 7 30.7 13.7 47 5.4 12.8 10.9 15.3 10.9 15.3l54.1 15.7-14.4-214.9-58.6-15.8c0 0-5.7 152.7-5.7 152.7z"/>
	<path fill-rule="evenodd" class="s18" d="m158.9 518.2c0 0 7.5 6.2 12.1 12.4 4.5 6.2 8.3 23.4 8.3 23.4l-24.5 204c0 0-11.6-10.4-17.3-27.7-5.8-17.3-6.1-17.9-6.1-17.9 0 0 27.6-194.2 27.5-194.2z"/>
	<path fill-rule="evenodd" class="s19" d="m158.9 518.2c0 0 7.5 6.2 12.1 12.4 4.5 6.2 8.3 23.4 8.3 23.4l-24.5 204c0 0-11.6-10.4-17.3-27.7-5.8-17.3-6.1-17.9-6.1-17.9 0 0 27.6-194.2 27.5-194.2z"/>
	<path fill-rule="evenodd" class="s20" d="m150.7 233.9l-6.6 151.3-11.8-8.2-58.5-107.3c22.7-19.3 47.3-33.9 76.9-35.8z"/>
	<path fill-rule="evenodd" class="s21" d="m167.7 446.4c54.1 31.1 96.6 32.9 143.4 33 49.3 0.1 100-3.3 149.7-26.3l-2.5 49.7c-35.2 27.4-100 37.4-149.6 37.8-48.2 0.3-121.6-11.2-141-44.5 0 0 0-49.7 0-49.7z"/>
	<path fill-rule="evenodd" class="s22" d="m167.7 446.4c54.1 31.1 96.6 32.9 143.4 33 49.3 0.1 100-3.3 149.7-26.3l-2.5 49.7c-35.2 27.4-100 37.4-149.6 37.8-48.2 0.3-121.6-11.2-141-44.5 0 0 0-49.7 0-49.7z"/>
	<path fill-rule="evenodd" class="s23" d="m167.7 446.4c54.1 31.1 96.6 32.9 143.4 33 49.3 0.1 100-3.3 149.7-26.3l-2.5 49.7c-35.2 27.4-100 37.4-149.6 37.8-48.2 0.3-121.6-11.2-141-44.5 0 0 0-49.7 0-49.7z"/>
	<path fill-rule="evenodd" class="s24" d="m167.7 446.4c54.1 31.1 96.6 32.9 143.4 33 49.3 0.1 100-3.3 149.7-26.3l-2.5 49.7c-35.2 27.4-100 37.4-149.6 37.8-48.2 0.3-121.6-11.2-141-44.5 0 0 0-49.7 0-49.7z"/>
	<path fill-rule="evenodd" class="s25" d="m167.7 446.4c54.1 31.1 96.6 32.9 143.4 33 49.3 0.1 100-3.3 149.7-26.3l-2.5 49.7c-35.2 27.4-100 37.4-149.6 37.8-48.2 0.3-121.6-11.2-141-44.5 0 0 0-49.7 0-49.7z"/>
	<path fill-rule="evenodd" class="s26" d="m167.7 446.4c54.1 31.1 96.6 32.9 143.4 33 49.3 0.1 100-3.3 149.7-26.3l-2.5 49.7c-35.2 27.4-100 37.4-149.6 37.8-48.2 0.3-121.6-11.2-141-44.5 0 0 0-49.7 0-49.7z"/>
	<path fill-rule="evenodd" class="s27" d="m167.7 446.4c54.1 31.1 96.6 32.9 143.4 33 49.3 0.1 100-3.3 149.7-26.3l-2.5 49.7c-35.2 27.4-100 37.4-149.6 37.8-48.2 0.3-121.6-11.2-141-44.5 0 0 0-49.7 0-49.7z"/>
	<path fill-rule="evenodd" class="s28" d="m167.7 446.4c54.1 31.1 96.6 32.9 143.4 33 49.3 0.1 100-3.3 149.7-26.3l-2.5 49.7c-35.2 27.4-100 37.4-149.6 37.8-48.2 0.3-121.6-11.2-141-44.5 0 0 0-49.7 0-49.7z"/>
	<path fill-rule="evenodd" class="s29" d="m176.4 512.7c26 17.8 99 67.9 269.6 8.4 8.3-2.9-11.6 7.4-4.9 5.4-148.3 57-233 23.7-262.9-2 0 0-1.8-11.8-1.8-11.8z"/>
	<path fill-rule="evenodd" class="s30" d="m408.8 571.2c0 0 11.1-16.9 36.7-27.4 14.7-6.1 26.9-6.4 26.9-6.4l28.8 194.8c0 0-7.7 8.9-31.4 26.2-20.2 14.7-47.1 26.3-47.1 26.3 0 0-13.9-213.5-13.9-213.5z"/>
	<path fill-rule="evenodd" class="s31" d="m287.8 576.2c0 0 33.4-9.6 59.1-9.6 25.8 0 60.7 4.9 60.7 4.9l15 214.7c0 0-21 3.6-60.4 8.3-31.5 3.7-81.2-0.1-81.2-0.1 0 0 6.8-218.2 6.8-218.2z"/>
	<path fill-rule="evenodd" class="s32" d="m493.8 216.6l27.2-1.8 39.1 1.2-6.7 26.2-64.9 23.5c0 0 5.3-49.1 5.3-49.1z"/>
	<path fill-rule="evenodd" class="s33" d="m513.2 177.9l4.2 6.1-15.8-5.2c0 0 11.6-0.9 11.6-0.9z"/>
	<path fill-rule="evenodd" class="s34" d="m69.9 231.2c-24.8 9.9-24.8 16.3-29.1 17.1l-1.8-6.3c0 0 6.3-8.4 14.3-15.2 8-6.8 17.6-12 17.6-12l2.9 4.8 27.7-0.7-6.9 3.9-10.1 2 2 4.7"/>
	<path fill-rule="evenodd" class="s35" d="m110 210.7l70.7-17.7-24.8 26.5-56.1 10.3-2.8-6.7c0 0 13-12.4 13-12.4z"/>
	<path fill-rule="evenodd" class="s36" d="m148.8 180.1l130.8-19.5-97.8 32.4-70.4 17.3-7.4-5.3 33.1-11.4c0 0 11.7-13.5 11.7-13.5z"/>
	<path fill-rule="evenodd" class="s37" d="m73.4 210.6c0 0 15-5.6 33-2.3 11.9 2.1-6.5 11.2-6.5 11.2 0 0-18.7 1-25.3-1.2-6.7-2.2-1.2-7.7-1.2-7.7z"/>
	<path fill-rule="evenodd" class="s38" d="m156.3 224.3c10.7 1.3 14.4 5.4 40.1 12.2 20.1 5.3 21.1 11 14.2 11.1-7.9 0.2-22.3-4.7-22.3-4.7-2.6 5.1-18.2-5.4-34.6-11.6-10.7-4.1-8.1-8.3 2.6-7z"/>
	<path fill-rule="evenodd" class="s39" d="m472.8 190l20.4 10.6 6.8 24 10.4 1.2c1 13.7 13.1 14.1 24.2 14.1 11.7 0 25.3-16.2 25.3-31.2 0-13.2-10.1-14.7-16.5-17.1 0 0-57.2-2.5-70.6-1.6z"/>
	<path fill-rule="evenodd" class="s40" d="m451.4 181.8l15.4-5.5 86.8-5.1 4.3 27.4c0 0-0.6-8.7-19.8-10.1-19.3-1.3-57.2 4.8-57.2 4.8 0 0-29.5-11.5-29.5-11.5z"/>
	<path fill-rule="evenodd" class="s41" d="m493.2 227.1l-124.5 27.5-161.2-5.5-58.6-18.4-67.8-1.8 12.8-11-20.1 3.7v1.8"/>
	<path fill-rule="evenodd" class="s42" d="m86.4 225.2c0 0 4.5-3.1 9.9-1.4 3.5 1.2-2 6.3-2 6.3 0 0-5.5 0.5-7.5-0.7-2-1.2-0.4-4.2-0.4-4.2z"/>
	<path fill-rule="evenodd" class="s43" d="m460.6 227.6l-89.4 19-159.4-8.7-55.6-15.7 16.8-26.6 103.2-35-123.6 18.8 133.4-19.8 108.4 9.4 54.2 13.8 53.5 19.8-9.9 16.9c0 0-31.6 8.1-31.6 8.1z"/>
	<path fill-rule="evenodd" class="s44" d="m317.1 67l-27.7 10.4-16 6 0.5 6.9-0.1-0.1 0.2 0.5v0.1l18.1 73.2c0 0 21.2 5.2 27.7 5 6.5-0.1 21.6-3.2 21.6-3.2l18.1-75.6-1.1 0.3 1.5-0.6-0.6-7.3-16.8-5.7c0 0-25.4-9.9-25.5-9.9z"/>
	<path fill-rule="evenodd" class="s45" d="m156.1 225.9l52.5 13.9 0.3 3.4"/>
	<path fill-rule="evenodd" class="s46" d="m214.6 237.5l57.9-47.7-107.6 32c0 0 49.7 15.7 49.7 15.7z"/>
	<path fill-rule="evenodd" class="s47" d="m303.6 164.2l-9.2-69-23.9-6.5 22.6 75.5c0 0 10.5 0 10.5 0z"/>
	<path fill-rule="evenodd" class="s48" d="m277.4 81.5l22.3 3.3 30.1 1.1 26.3-4.4-1.3-1.1"/>
	<path fill-rule="evenodd" class="s49" d="m317.5 221.4l27.7-5.7 15.9-3.4-0.5-3.8 0.1 0.1-0.1-0.3h-0.1c-10.7-7.2-17.8-19.3-18.1-40.4 0 0-21.2-14.6-27.7-14.5-6.4 0-21.6 5.7-21.6 5.7l-18 49.5 1.1-0.2-1.6 0.3 0.6 4.1 16.9 3.1c0 0 25.4 5.5 25.4 5.5z"/>
	<path fill-rule="evenodd" class="s50" d="m480.3 192.2l24.7-2.4h32.5c0 0 15.4 1.2 20 8.4 4.5 7.2 3.9 22.2 3.9 22.2l-1.3 1.4"/>
	<path fill-rule="evenodd" class="s44" d="m607.2 165.5c11.4 3.3 63.8 70 64.4 82.7 0.6 11.3-68.2 196.2-68.2 196.2 0 0-65.5 22.3-71.2 21.1-8 0-17.9-41.2-13.1-51.1 2.3-4.6 26.8 9.3 26.8 9.3 0 0 19.6-0.7 29.1-17.2 11.4-19.8 3.5-38.3 11-77.9 10.9-57.3 29.3-63.8 26.9-78.9-1.6-9.9-10.8-15.8-23.3-16.3-10.3-0.5-37.9 10.6-37.9 10.6 0 0 5.2-15.5 7-26.4 1.7-10.9-0.1-17.3-0.1-17.3l-3.7-30"/>
	<path fill-rule="evenodd" class="s51" d="m495.8 216.4l13.9 0.5c0.8 12.4 11.6 18.8 24.6 23.9l-0.6 9.8-36.1 13c0 0-1.8-47.2-1.8-47.2z"/>
	<path fill-rule="evenodd" class="s52" d="m146 364.4l5.5-122.1"/>
	<path fill-rule="evenodd" class="s53" d="m455 183.1l24.5 11.5 20.8 8.4"/>
	<path fill-rule="evenodd" class="s54" d="m287.8 576.2c0 0 33.4-9.7 59.1-9.7 25.7 0 60.7 4.9 60.7 4.9l15 214.8c0 0-21 3.5-60.4 8.2-31.5 3.8-81.3-0.1-81.3-0.1l6.9-218.1z"/>
	<path fill-rule="evenodd" class="s55" d="m369.9 259l-3.7 205.4"/>
	<path fill-rule="evenodd" class="s56" d="m96 225.6l53.7-3.7 18.5-12.9"/>
	<path fill-rule="evenodd" class="s57" d="m496.6 179.5l-20.1-0.1 27.6 9.3c0 0-7.5-9.2-7.5-9.2z"/>
	<path fill-rule="evenodd" class="s58" d="m545.3 218.4l-19.5-1.8c0.2 6.8 4.2 9.2 8.5 9.7 7.9 0.9 11-7.9 11-7.9z"/>
	<path fill-rule="evenodd" class="s59" d="m244.5 572.5l-1.6 24.4-17.7 11.1-21.7-3.4-8.2-14.2 1.5-22.2 13.3-12.8 21.5 1.3c0 0 12.9 15.8 12.9 15.8z"/>
	<path fill-rule="evenodd" class="s60" d="m224.3 555.9c3.5 5.9 7.2 11.9 13.1 18l8.4 0.7-12.5-16.8c0 0-8.9-1.9-9-1.9z"/>
	<path fill-rule="evenodd" class="s61" d="m218.9 567.3c7.2 0.5 12.5 7.7 11.9 15.9-0.7 8.2-7 14.4-14.2 13.9q-0.8-0.1-1.5-0.3 2-0.3 3.8-1.2c4.5-2.1 7.8-6.9 8.2-12.7 0.6-7.5-3.8-14.1-10.1-15.6q0 0 0 0 0 0 0 0 1-0.1 1.9 0zm-1.9 0q0 0 0 0-0.9-0.2-1.8-0.3c-2.2-0.2-4.3 0.3-6.2 1.2 1.8-0.8 3.8-1.2 5.9-1.1q0.7 0.1 1.5 0.3 0.3-0.1 0.6-0.1 0 0 0 0z"/>
	<path fill-rule="evenodd" class="s59" d="m223 582.4c-0.4 5.5-4.7 9.7-9.5 9.3-4.9-0.4-8.4-5.2-8-10.7 0.5-5.5 4.7-9.6 9.5-9.3 4.9 0.4 8.4 5.2 8 10.7z"/>
	<path fill-rule="evenodd" class="s62" d="m214.7 571.2c-4.3 0.3-7.9 4.2-8.3 9.2-0.3 3.9 1.4 7.4 4.1 9.3q1.1 0.8 2.4 1.2-0.5 0-1 0c-4.8-0.4-8.4-5.2-7.9-10.7 0.4-5.5 4.7-9.6 9.5-9.2q0.6 0 1.2 0.2zm1.3 0c1.4 0.1 2.8 0.6 3.9 1.4-1.1-0.7-2.4-1.2-3.8-1.3q-0.5 0-0.9 0l-0.5-0.1q0.6-0.1 1.3 0z"/>
	<path fill-rule="evenodd" class="s63" d="m237.1 573.9c0 0-1 4.9-1.9 10.5-0.8 5.5-0.3 11.5-0.3 11.5l8.3 0.7 2.4-22.3c0 0-8.5-0.4-8.5-0.4z"/>
	<path fill-rule="evenodd" class="s64" d="m249.9 575c0 0 0.9 5-0.2 10.5-1.1 6.1-4 12.4-4 12.4l-2.4-1.3 1.4-22.4c0 0 5.2 0.7 5.2 0.8z"/>
	<path fill-rule="evenodd" class="s60" d="m250 574.9c-2.9-5.9-7.9-11.5-12.9-17.5l-5.4-0.9 10.6 16.6c0 0 7.7 1.8 7.7 1.8z"/>
	<path fill-rule="evenodd" class="s65" d="m246.8 596.6c-4.3 4.1-9.3 6.7-14.7 9.8l-6.4 1.1 17.4-10.6c0 0 3.7-0.3 3.7-0.3z"/>
	<path fill-rule="evenodd" class="s66" d="m213.2 567.6c-5.7 0.6-11.1 3-12.4 13.9-0.7 5.6 3.1 10.3 6.7 13q1.4 1.1 3.1 1.7-0.6 0.1-1.3 0c-6.3-0.5-11-7.4-10.3-15.3 0.6-8 6.2-14 12.6-13.5q0.8 0 1.6 0.2zm1.6 0c2 0.2 3.8 0.9 5.3 2.1-1.5-1.1-3.2-1.8-5-1.9q-0.7 0-1.3 0-0.3-0.1-0.6-0.2 0.8-0.1 1.6 0z"/>
	<path fill-rule="evenodd" class="s67" d="m222.4 582.4c0 5.5-3.9 10-8.8 10-4.8 0-8.7-4.5-8.7-10 0-5.5 3.9-10 8.7-10 4.9 0 8.8 4.5 8.8 10z"/>
	<path fill-rule="evenodd" class="s68" d="m218.3 581.3c0 3.6-2.5 6.6-5.6 6.6-3.1 0-5.6-3-5.6-6.6 0-3.6 2.5-6.5 5.6-6.5 3.1 0 5.6 2.9 5.6 6.5z"/>
	<path fill-rule="evenodd" class="s69" d="m208.1 250.1l17.1 213"/>
	<path fill-rule="evenodd" class="s70" d="m332.9 545.1c12.6 5.1 85.4-16.2 118-27.7 11.3-4 1.4 20.1 9 16.3 5.7-2.9-23 12.4-18.6 9.2-18.1 12.7-35.4 20.2-30.7 21.2 0 0-77.7-19-77.7-19z"/>
	<path fill-rule="evenodd" class="s71" d="m408.3 571.8l14.3 213.8"/>
	<path fill-rule="evenodd" class="s72" d="m153.1 232.6l-78.1 36-33-18.2c0 0 9.7-8.4 20.9-15 14.5-8.5 90.2-2.8 90.2-2.8z"/>
	<path fill-rule="evenodd" class="s73" d="m167.7 446.4c54.1 31.1 96.6 32.9 143.4 33 49.3 0.1 100-3.3 149.7-26.3l-2.5 49.7c-35.2 27.4-100 37.4-149.6 37.8-48.2 0.3-121.6-11.2-141-44.5 0 0 0-49.7 0-49.7z"/>
	<path fill-rule="evenodd" class="s74" d="m145.6 385.7c0 0 7 30.7 13.7 47 5.4 12.8 10.9 15.3 10.9 15.3l54.1 15.7-14.4-214.9-58.6-15.8c0 0-5.7 152.7-5.7 152.7z"/>
	<path fill-rule="evenodd" class="s75" d="m145.6 385.7c0 0 7 30.7 13.7 47 5.4 12.8 10.9 15.3 10.9 15.3l54.1 15.7-14.4-214.9-58.6-15.8c0 0-5.7 152.7-5.7 152.7z"/>
	<path fill-rule="evenodd" class="s76" d="m176 508.9c74 46.5 207.6 41.4 279.5-3.1"/>
</svg>